<svg enable-background="new 0 0 24 24" viewBox="0 0 24 30" xmlns="http://www.w3.org/2000/svg"><path d="m9 16.5c.13 0 .26-.05.359-.15.091-.1.141-.22.141-.35s-.049-.25-.15-.35c-.18-.19-.52-.19-.71 0-.09.09-.14.22-.14.35s.049.26.149.36c.091.09.221.14.351.14zm3-16c-6.341 0-11.5 5.159-11.5 11.5s5.159 11.5 11.5 11.5 11.5-5.159 11.5-11.5-5.159-11.5-11.5-11.5zm-10.5 11.5c0-2.715 1.044-5.185 2.742-7.05l7.071 7.071 2.268 2.269c-.432.336-.879.602-1.254.74-.014.005-.024.017-.038.023-.031-.034-.047-.061-.055-.08-.045-.102.043-.319.137-.549l.099-.251c.057-.154.035-.327-.06-.461-.094-.133-.246-.212-.409-.212h-.004c-6.048.051-8.362 2.278-9.196 3.554-.827-1.501-1.301-3.223-1.301-5.054zm1.906 6.014c.34-.711 1.965-3.254 7.871-3.497-.07.267-.091.559.042.86.195.442.66.779 1.529 1.099.275.498-1.468 3.17-3.667 5.628-2.367-.661-4.397-2.127-5.775-4.09zm8.594 4.486c-.581 0-1.146-.06-1.701-.151 1.3-1.498 3.874-4.686 3.524-6.099-.067-.271-.247-.466-.479-.606.314-.177.633-.394.946-.646l4.76 4.76c-1.865 1.698-4.335 2.742-7.05 2.742zm7.757-3.449-14.808-14.808c1.866-1.698 4.335-2.743 7.051-2.743 5.79 0 10.5 4.71 10.5 10.5 0 2.716-1.045 5.185-2.743 7.051zm-9.546-.003c-1.46-.682-2.945-1.825-2.742-2.374.096-.26-.036-.547-.296-.643-.257-.094-.546.037-.642.296-.633 1.712 2.603 3.321 3.258 3.626.068.032.14.047.211.047.188 0 .368-.107.453-.287.116-.251.009-.548-.242-.665zm3.456-10.517c-.002-.001-.004-.003-.006-.004-1.069-.364-2.034-1.194-2.661-2.276l-.512-2.356c-.047-.217-.231-.377-.453-.393-.222-.007-.428.118-.504.326-.262.709-.05 1.782.567 2.87 0 .001.001.001.002.002.438.774 1.44 2.159 3.234 2.771.002.001.004.003.006.003 1.083.369 1.753.858 1.992 1.454.182.453.115.988-.198 1.59-.128.245-.032.547.213.674.073.039.152.057.23.057.18 0 .355-.099.444-.268.448-.86.53-1.698.239-2.425-.353-.878-1.226-1.559-2.593-2.025z"/></svg>