<svg enable-background="new 0 0 512 512" viewBox="0 0 512 640" xmlns="http://www.w3.org/2000/svg"><path d="m479.948 332.53c-38.866-52.093-6.74-120.522-6.403-121.207 1.615-3.361.582-7.388-2.422-9.576-3.004-2.159-7.154-1.878-9.857.704-13.237 12.777-39.316 27.666-58.017 37.523 2.497-2.732 5.389-5.492 8.656-8.252 16.523-13.969 24.014-35.205 19.546-55.435-12.279-55.417-95.907-74.925-99.68-75.779-112.654-21.977-178.708 12.843-214.269 45.982-17.621 16.41-30.82 38.209-38.162 63.04-10.402 35.205-31.665 61.322-43.419 73.761-3.821 4.046-5.764 9.557-5.342 15.114.441 5.558 3.22 10.712 7.642 14.138 10.449 8.083 18.259 14.814 22.568 19.452 9.876 10.636 99.568 82.059 205.435 86.153 3.821.15 7.548.225 11.19.225 68.194 0 105.604-25.216 125.178-47.014 8.186-9.106 16.448-20.184 15.678-33.28-.563-9.782-6.158-19.245-17.227-29.009-.61-.526-1.211-1.089-1.774-1.671 3.023 1.746 7.003 4.262 12.223 7.876 22.568 15.659 58.186 28.549 59.688 29.093 3.286 1.183 6.778.075 8.787-2.666 2.028-2.723 2.009-6.45-.019-9.172zm-151.351-216.973c.779.178 77.656 18.062 87.833 64.044 3.229 14.636-2.309 30.107-14.439 40.368-8.983 7.576-19.458 19.053-23.251 32.061l-6.086 2.524c-1.051-2.722-2.009-5.483-2.854-8.28-33.284-109.733-125.705-125.7-181.285-124.718 21.001-7.527 45.995-12.57 76.14-12.57 19.255 0 40.519 1.999 63.942 6.571zm91.644 187.082c-18.607-12.918-25.892-15.049-31.853-14.467-4.553.544-8.28 4.056-9.078 8.59-1.915 11.275 8.477 21.207 11.669 23.939 7.717 6.816 11.613 12.786 11.932 18.269.338 5.849-3.286 12.674-11.772 22.118-18.419 20.494-55.144 44.142-124.314 41.701-100.704-3.905-185.457-71.235-194.77-81.252-4.938-5.323-13.162-12.448-24.418-21.16-1.361-1.051-1.662-2.431-1.718-3.164-.056-.732.019-2.131 1.183-3.361 12.692-13.434 35.674-41.692 46.996-79.966 6.553-22.184 18.278-41.607 33.881-56.149 3.904-3.637 8.358-7.265 13.093-10.855 4.999 8.666 7.749 18.411 7.749 28.457 0 4.825 1.155 9.651 3.361 13.969l1.23 2.394c3.99 7.783 5.248 16.804 3.53 25.394-.836 4.168 1.868 8.224 6.027 9.05.516.103 1.023.15 1.521.15 3.586 0 6.797-2.525 7.529-6.177 2.403-11.988.648-24.577-4.919-35.439l-1.22-2.375c-1.098-2.15-1.68-4.563-1.68-6.966 0-12.512-3.377-24.658-9.497-35.5 30.56-5.583 160.382-20.991 200.381 110.904 1.774 5.839 3.943 11.556 6.515 17.086 1.305 2.788 4.074 4.44 6.975 4.44.986 0 1.981-.188 2.948-.582l16.335-6.778c.067-.028.107-.087.172-.116.047-.021.1-.002.147-.025 1.868-.882 35.974-16.964 62.542-34.745-6.065 22.869-10.439 57.914 4.882 91.447-11.307-4.975-25.032-11.678-35.359-18.831z"/><path d="m203.86 188.032c-.225-.667-.338-1.342-.338-2.018 0-2.262-.038-4.516-.122-6.769-.169-4.243-3.577-7.266-7.989-7.388-4.243.169-7.548 3.746-7.388 7.989.084 2.047.122 4.112.122 6.168 0 2.356.385 4.685 1.145 6.938l3.051 9.059c5.501 16.232 7.294 33.825 5.191 50.873l-4.074 33.073c-1.436 11.669-1.652 23.498-.629 35.167l1.727 19.855c.347 4.009 3.708 7.022 7.651 7.022.225 0 .451-.009.676-.028 4.234-.366 7.36-4.093 6.994-8.327l-1.727-19.855c-.92-10.599-.732-21.348.573-31.956l4.074-33.073c2.385-19.32.347-39.269-5.886-57.679z"/><path d="m253.006 216.214-3.004-9.332c-3.089-9.585-5.36-19.508-6.75-29.487-.357-2.572-.845-5.116-1.446-7.632-.986-4.121-5.116-6.665-9.266-5.698-4.131.986-6.684 5.135-5.698 9.266.488 2.047.882 4.121 1.183 6.196 1.511 10.852 3.98 21.639 7.332 32.069l3.004 9.332c5.285 16.419 8.618 33.458 9.914 50.638 1.756 23.376 1.849 45.606.272 64.288-.357 4.234 2.779 7.952 7.013 8.308.225.019.441.028.657.028 3.952 0 7.313-3.032 7.651-7.041 1.671-19.761 1.587-42.217-.253-66.738-1.391-18.382-4.958-36.623-10.609-54.197z"/><path d="m303.052 232.042c-2.591-9.463-6.13-18.719-10.524-27.516l-7.304-14.795c-1.756-3.868-6.299-5.548-10.176-3.849-3.877 1.756-5.595 6.309-3.849 10.176l7.567 15.34c3.943 7.895 7.125 16.213 9.454 24.709 4.6 16.776 10.158 41.776 10.477 65.518.516 39.1-.516 58.148-12.552 76.455-2.338 3.549-1.352 8.318 2.197 10.646 1.305.864 2.769 1.267 4.215 1.267 2.507 0 4.957-1.22 6.431-3.464 14.326-21.78 15.631-43.682 15.086-85.11-.338-25.376-6.178-51.737-11.022-69.377z"/><path d="m354.179 289.008-7.961-31.562-6.947-21.545c-1.296-4.037-5.642-6.262-9.679-4.966-4.046 1.305-6.271 5.642-4.966 9.679l6.816 21.066 7.82 31.083c.986 3.896 1.793 7.839 2.385 11.819 2.469 16.504 2.244 25.864 1.202 29.131-1.296 4.046.939 8.374 4.985 9.66.779.253 1.568.366 2.338.366 3.258 0 6.28-2.084 7.323-5.351 2.159-6.741 1.943-18.879-.638-36.078-.669-4.468-1.571-8.899-2.678-13.302z"/><path d="m116.609 211.52-.3-.113c-2.338-.854-4.957-.563-7.032.845-.948.648-23.348 16.419-20.428 61.669.77 11.876 3.361 24.08 7.717 36.265l9.792 27.45c.817 2.291 2.666 4.056 4.976 4.769.742.225 1.511.338 2.272.338 1.605 0 3.192-.498 4.525-1.465 1.831-1.333 44.818-33.017 45.372-70.334 0 0-.216-2.385-1.061-6.224-5.277-24.144-22.373-44.018-45.833-53.2zm.563 110.646-6.121-17.142c-3.877-10.843-6.177-21.639-6.853-32.097-1.718-26.708 6.449-40.03 10.993-45.268 16.457 7.867 28.361 22.672 32.229 40.358.479 2.178.685 3.699.732 3.699 0 0 0 0 .009-.009-.422 20.342-19.667 40.395-30.989 50.459z"/><circle cx="122.634" cy="257.771" r="9.537"/></svg>