<svg xmlns="http://www.w3.org/2000/svg" data-name="Layer 1" viewBox="0 0 100 125" x="0" y="0"><path d="M95.22,21H88.55V12.56a2.5,2.5,0,0,0-2.5-2.5H77.82V3.46A2.5,2.5,0,0,0,75.32,1H69.87A22.53,22.53,0,0,0,48.34,16.57a29.53,29.53,0,0,0-18.48-6.51H14a2.5,2.5,0,0,0-2.5,2.5V21H4.78A3.78,3.78,0,0,0,1,24.78V86.12A3.78,3.78,0,0,0,4.78,89.9H29.6a14.88,14.88,0,0,1,11.09,5l.35.38a12.52,12.52,0,0,0,1.46,1.28c.21.15.41.3.61.43a12.45,12.45,0,0,0,1.42.81l.26.13c.27.13.53.24.8.34a10.22,10.22,0,0,0,1.06.34c.25.07.57.16.94.23a12.07,12.07,0,0,0,1.64.21L50,99a12.39,12.39,0,0,0,2.45-.25c.32-.06.59-.13.74-.18a11,11,0,0,0,1.22-.38l.12,0,.61-.27.23-.11h0a12.45,12.45,0,0,0,1.54-.88l.51-.36A12.59,12.59,0,0,0,59,95.17l.13-.13.21-.23a14.59,14.59,0,0,1,11-4.91H95.22A3.78,3.78,0,0,0,99,86.12V24.78A3.78,3.78,0,0,0,95.22,21Zm-11.68-6V73.94H70.14a29.53,29.53,0,0,0-16.78,5.24A17.56,17.56,0,0,1,69.87,67.85h5.45a2.5,2.5,0,0,0,2.5-2.5V15.06ZM69.87,6h2.95V62.85H69.87a22.74,22.74,0,0,0-17.37,8V20.69a14.32,14.32,0,0,1,.42-2A17.51,17.51,0,0,1,69.87,6ZM16.45,15.06H29.86A24.52,24.52,0,0,1,47.5,22.56V79.81a29.53,29.53,0,0,0-17.64-5.86H16.45ZM94,84.9H70.4a19.59,19.59,0,0,0-14.82,6.63l-.08.09,1.83,1.71-1.9-1.63a7.67,7.67,0,0,1-1,.85l-.3.21a7.54,7.54,0,0,1-.9.52l-.06,0-.15.07-.4.17a6.91,6.91,0,0,1-.75.23l-.42.1A7.44,7.44,0,0,1,50,94l-.44,0a7.27,7.27,0,0,1-1-.13c-.2,0-.38-.09-.58-.14a5.92,5.92,0,0,1-.62-.2l-.44-.19-.18-.09a7.66,7.66,0,0,1-.87-.5l-.35-.25a7.61,7.61,0,0,1-.9-.79l-.19-.2A19.89,19.89,0,0,0,29.6,84.9H6V26h5.45V76.44a2.5,2.5,0,0,0,2.5,2.5H29.86a24.52,24.52,0,0,1,18.27,8.18,2.5,2.5,0,0,0,3.73,0,24.52,24.52,0,0,1,18.27-8.18H86a2.5,2.5,0,0,0,2.5-2.5V26H94Z"/><path d="M24.11,30.27h4.12a23.74,23.74,0,0,1,10.51,2.45A2.5,2.5,0,0,0,41,28.24a28.72,28.72,0,0,0-12.72-3H24.11a2.5,2.5,0,0,0,0,5Z"/><path d="M24.11,41.26h4.12a23.76,23.76,0,0,1,10.51,2.45A2.5,2.5,0,0,0,41,39.23a28.75,28.75,0,0,0-12.72-3H24.11a2.5,2.5,0,0,0,0,5Z"/><path d="M24.11,52.25h4.12A23.74,23.74,0,0,1,38.74,54.7,2.5,2.5,0,0,0,41,50.22a28.72,28.72,0,0,0-12.72-3H24.11a2.5,2.5,0,0,0,0,5Z"/><path d="M38.74,65.69A2.5,2.5,0,1,0,41,61.21a28.72,28.72,0,0,0-12.72-3H24.11a2.5,2.5,0,0,0,0,5h4.12a23.74,23.74,0,0,1,10.51,2.45Z"/></svg>