<svg enable-background="new 0 0 512 512" viewBox="0 0 512 640" xmlns="http://www.w3.org/2000/svg"><path d="m474.9 103.6h-34.3c-20 0-36.3 16.3-36.3 36.3v2c-.5 12.9-6 25.5-15.5 35.3l-4.8 4.9c-10.2-10.4-22-21.2-35.2-31.1-36.5-27.7-73.3-41.7-109.2-41.7h-.1c-87.6 0-156.8 83-179.7 114.3h-49c-3.2 0-6.2 1.5-8 4.1-1.9 2.5-2.5 5.8-1.5 8.9 7.7 25.1 21.7 42.4 41.7 51.2 10.2 4.5 22 6.8 35.3 6.8 11.2 0 23.4-1.6 36.6-4.8 36 20.3 79 31.1 124.6 31.1h1.6l-38.6 42.5c-8 8.8-9.4 21.3-3.4 31.6 5 8.6 13.7 13.6 23.3 13.6 1.9 0 3.9-.2 5.8-.6 65.7-13.8 113.5-33.4 146-60 33.8-27.5 50.6-62.7 50.1-104.6h12.2c41.2 0 74.8-33.6 74.8-74.8v-28.5c-.1-20.2-16.4-36.5-36.4-36.5zm-246 120-43.6-82.4c16.3-7.1 32.4-11 48.2-11.8l49.9 94.2zm77.1 0-49.3-93.1c21 3 42.5 11.5 64.2 25.4l35 67.6-22.3.1zm87.8-.3-12 .1h-3.4l-19.6-37.9c14.2 13.2 26.1 26.7 35 37.8zm-226.4-73.1 38.9 73.4h-42-21l-21.1-39.9c6.2-5.7 12.9-11.3 20-16.7 8.4-6.4 16.8-12 25.2-16.8zm-60.2 48 13.4 25.4h-35.7c6.1-7.6 13.6-16.4 22.3-25.4zm-56.2 71.2c-11.1-4.9-19.6-13.4-25.7-25.8h39.7 72.1 1.9l-27.8 26.3c-24.9 6.3-45.2 6.1-60.2-.5zm82.2 7.4 4.6-4.4 30.3-28.8h54.7 77 11.1l-50.9 56.3c-6.9.5-13.8.8-20.5.8-38 0-75.2-8.4-106.3-23.9zm228.3 55.6c-29.6 24.1-75.9 42.9-137.5 55.9-4.7 1-7-2.4-7.6-3.4-.8-1.3-2.2-4.8.9-8.2l120.8-133h34.3 30.3c.5 0 1 0 1.5-.1.5 35.8-13.5 65-42.7 88.8zm129.7-164c0 30.2-24.6 54.8-54.8 54.8h-17.5c-5.3-7.2-12.5-16.4-21.3-26.4l5.5-5.7c12.9-13.4 20.4-30.6 21.1-48.5 0-.9 0-1.8 0-2.7 0-9 7.3-16.3 16.3-16.3h34.3c9 0 16.3 7.3 16.3 16.3v28.5z"/><circle cx="467.8" cy="149.3" r="9.5"/></svg>