<svg enable-background="new 0 0 512 512" viewBox="0 0 512 640" xmlns="http://www.w3.org/2000/svg"><path d="m468.319 287.888c-3.925-51.916-33.995-98.707-79.733-123.68v-30.445c0-4.039-3.288-7.319-7.327-7.319h-59.3c-1.937-27.494-14.581-49.402-34.867-59.299-20.356-9.919-44.519-5.844-66.269 11.152-4.271 3.333-26.039 21.607-35.869 54.223-12.743 42.178-29.507 57.137-42.339 57.011-6.657-.049-12.344-4.938-15.176-12.402.035-.296.237-.538.235-.841l-.036-4.593c-.071-9.526 4.539-18.48 12.367-23.948l3.771-2.627c2.27-1.608 3.449-4.361 3.038-7.113-.429-2.752-2.377-5.031-5.022-5.871l-4.379-1.385c-9.097-2.886-16.174-10.044-18.944-19.168l-1.34-4.396c-.822-2.663-3.074-4.638-5.808-5.085-2.877-.483-5.522.697-7.149 2.949l-2.681 3.744c-5.558 7.756-14.548 12.09-24.073 12.108l-4.611-.089c-2.645.313-5.362 1.474-6.648 3.959-1.287 2.475-1.037 5.469.626 7.712l2.734 3.699c5.648 7.667 7.167 17.622 4.057 26.629l-1.501 4.343c-.911 2.627-.25 5.558 1.716 7.542 1.948 1.984 4.879 2.699 7.506 1.805l4.361-1.448c8.99-3.038 18.98-1.394 26.611 4.361l.538.408c4.462 14.672 15.995 24.24 29.683 24.345h.214c10.973 0 37.924-6.72 56.261-67.413 6.648-22.018 20.785-39.041 30.865-46.923 17.193-13.422 35.726-16.889 50.846-9.535 15.241 7.444 24.87 24.432 26.65 46.145h-60.536c-4.039 0-7.327 3.279-7.327 7.319v31.374c-44.692 25.152-74.183 71.597-78.089 122.68-5.188 3.532-8.305 9.373-8.054 15.685l.733 18.623c.197 4.843 1.054 10.973 6.13 15.352 2.422 2.094 5.357 4.021 8.193 5.979 20.626 63.884 79.084 106.721 146.488 106.721 66.988 0 125.298-42.483 146.18-105.832 2.488-1.661 5.139-3.266 7.322-5.028 3.735-2.985 6.112-7.596 6.505-12.6l1.805-22.036c.565-6.754-2.655-13.155-8.357-16.792zm-354.55-124.628c-5.933-2.86-12.439-4.325-18.98-4.325-1.787 0-3.592.107-5.379.322 1.126-8.31-.161-16.8-3.735-24.404 8.275-1.492 15.942-5.344 22.072-11.09 3.968 7.408 9.99 13.502 17.354 17.559-5.809 6.068-9.741 13.7-11.332 21.938zm140.349-22.179h119.813v21.089h-119.813zm-5.305 35.744h131.975c40.884 22.009 68.062 63.099 72.582 109.096-1.323.416-2.633.906-3.859 1.639-29.864 18.051-80.013 28.81-134.129 28.81-54.617 0-105.015-10.92-134.79-29.203-1.324-.818-2.736-1.415-4.184-1.849 4.703-45.582 31.854-86.605 72.405-108.493zm66.051 258.696c-55.167 0-103.633-31.765-126.237-80.582 32.005 14.578 77.333 23.142 126.756 23.142 48.434 0 93.432-8.322 125.441-22.525-22.746 48.449-71.107 79.965-125.96 79.965zm145.424-109.983c-.089 1.019-.483 1.894-1.09 2.377-26.754 21.571-83.212 35.512-143.815 35.512-62.462 0-119.617-14.53-145.62-37.031-.768-.661-1.019-3.002-1.09-4.843l-.733-18.623c-.071-2.002 1.376-3.002 1.823-3.271.59-.34 1.805-.822 3.163-.018 31.991 19.641 85.249 31.383 142.457 31.383 56.672 0 109.644-11.563 141.707-30.918 1.394-.84 2.681-.322 3.324.054.554.34 1.841 1.358 1.68 3.324z"/><path d="m159.575 144.012c.34 0 .679-.018 1.019-.071l10.437-1.43c4.003-.554 6.809-4.254 6.255-8.257-.572-4.021-4.361-6.791-8.257-6.255l-10.437 1.439c-4.003.554-6.809 4.254-6.255 8.257.518 3.663 3.646 6.317 7.238 6.317z"/><path d="m138.147 108.76c2.216 0 4.396-1.001 5.844-2.904l6.362-8.409c2.431-3.217 1.805-7.81-1.43-10.25-3.235-2.466-7.81-1.814-10.258 1.421l-6.362 8.409c-2.431 3.226-1.805 7.81 1.43 10.25 1.322 1.001 2.877 1.483 4.414 1.483z"/><path d="m98.042 98.984c.34 0 .679-.018 1.019-.071 4.003-.554 6.809-4.245 6.255-8.248l-1.448-10.446c-.572-4.012-4.414-6.872-8.257-6.246-4.003.554-6.809 4.245-6.255 8.248l1.448 10.446c.518 3.663 3.646 6.317 7.238 6.317z"/><path d="m58.384 118.929c1.323 1.001 2.877 1.483 4.414 1.483 2.216 0 4.396-1.001 5.844-2.895 2.431-3.226 1.805-7.819-1.43-10.258l-8.4-6.362c-3.235-2.457-7.828-1.796-10.258 1.412-2.431 3.226-1.805 7.819 1.43 10.258z"/><path d="m52.022 145.925-10.437 1.448c-4.003.554-6.809 4.254-6.255 8.257.518 3.664 3.646 6.327 7.238 6.327.34 0 .679-.036 1.019-.071l10.437-1.448c4.003-.554 6.809-4.254 6.255-8.257-.572-4.022-4.379-6.721-8.257-6.256z"/><path d="m68.625 184.028-6.362 8.418c-2.431 3.217-1.787 7.81 1.43 10.258 1.323 1.001 2.877 1.483 4.414 1.483 2.216 0 4.396-1.001 5.844-2.913l6.362-8.418c2.431-3.217 1.787-7.81-1.43-10.258-3.235-2.466-7.81-1.805-10.258 1.43z"/></svg>