<svg enable-background="new 0 0 512 512" viewBox="0 0 512 640" xmlns="http://www.w3.org/2000/svg"><path d="m380.075 264.559c7.081-4.467 13.189-8.323 26.035-8.323s18.963 3.856 26.025 8.323c7.934 5.005 16.905 10.668 34.145 10.668 4.189 0 7.6-3.401 7.6-7.591 0-4.189-3.411-7.591-7.6-7.591-12.846 0-18.963-3.856-26.025-8.323-7.934-5.005-16.905-10.668-34.145-10.668-17.239 0-26.22 5.663-34.135 10.668-5.515 3.476-10.586 6.455-18.494 7.667-5.417-15.346-12.512-28.841-20.683-40.862 3.836.828 8.047 1.423 13.142 1.423 17.239 0 26.22-5.672 34.135-10.668 7.081-4.467 13.189-8.332 26.035-8.332s18.963 3.865 26.025 8.332c7.934 4.996 16.905 10.668 34.145 10.668 4.189 0 7.6-3.401 7.6-7.591s-3.411-7.591-7.6-7.591c-12.846 0-18.963-3.865-26.025-8.332-7.934-4.996-16.905-10.668-34.145-10.668-17.239 0-26.22 5.672-34.135 10.668-7.081 4.467-13.189 8.332-26.035 8.332-12.818 0-18.917-3.856-25.979-8.323-3.44-2.173-6.926-4.304-10.964-6.097-62.157-59.765-153.548-64.088-154.911-64.138-3.077.028-5.997 1.724-7.239 4.597-1.233 2.873-.575 6.228 1.659 8.425 1.34 1.313 17.962 18.198 28.686 47.741-3.62-.665-7.285-1.205-11.446-1.205-17.202 0-26.155 5.672-34.052 10.677-7.053 4.467-13.142 8.323-25.933 8.323-12.818 0-18.907-3.856-25.97-8.323-7.906-5.005-16.868-10.677-34.08-10.677-4.189 0-7.591 3.401-7.591 7.591 0 4.189 3.401 7.591 7.591 7.591 12.809 0 18.907 3.856 25.961 8.323 7.906 5.005 16.868 10.677 34.089 10.677 17.202 0 26.155-5.672 34.052-10.677 7.053-4.467 13.143-8.323 25.933-8.323 7.591 0 12.605 1.378 16.442 3.019 2.803 12.007 4.297 25.546 3.735 40.491-5.257-1.963-11.62-3.406-20.177-3.406-17.202 0-26.155 5.672-34.052 10.668-7.053 4.467-13.142 8.323-25.933 8.323-12.818 0-18.917-3.856-25.97-8.323-7.906-5.005-16.868-10.668-34.08-10.668-4.189 0-7.591 3.401-7.591 7.591 0 4.189 3.401 7.591 7.591 7.591 12.809 0 18.907 3.856 25.961 8.323 7.906 4.996 16.878 10.668 34.089 10.668 17.202 0 26.155-5.672 34.052-10.668 7.053-4.467 13.143-8.323 25.933-8.323 8.643 0 14.169 1.749 18.774 4.08-1.563 11.575-4.466 23.856-9.012 36.835-2.984-.452-6.102-.82-9.762-.82-17.202 0-26.155 5.672-34.052 10.668-7.053 4.467-13.142 8.323-25.933 8.323-12.818 0-18.917-3.856-25.97-8.323-7.906-5.005-16.868-10.668-34.08-10.668-4.189 0-7.591 3.401-7.591 7.591 0 4.189 3.401 7.591 7.591 7.591 12.809 0 18.907 3.856 25.961 8.323 7.906 4.996 16.878 10.668 34.089 10.668 17.202 0 26.155-5.672 34.052-10.668 7.053-4.467 13.143-8.323 25.933-8.323 12.818 0 18.917 3.856 25.97 8.323 7.906 5.005 16.868 10.668 34.08 10.668 17.221 0 26.183-5.672 34.098-10.668 7.062-4.467 13.152-8.323 25.97-8.323s18.917 3.856 25.979 8.323c7.915 5.005 16.878 10.668 34.098 10.668 5.9 0 10.588-.81 14.842-1.884.03-.014.067-.013.097-.027 8.121-2.067 14.011-5.479 19.196-8.757 7.081-4.467 13.189-8.323 26.035-8.323s18.963 3.856 26.025 8.323c7.934 5.005 16.905 10.668 34.145 10.668 4.189 0 7.6-3.401 7.6-7.591 0-4.189-3.411-7.591-7.6-7.591-12.846 0-18.963-3.856-26.025-8.323-7.934-5.005-16.905-10.668-34.145-10.668-17.239 0-26.22 5.663-34.135 10.668-2.526 1.594-5.013 3.026-7.642 4.317-1.188-13.308-3.272-25.769-6.324-37.236 9.79-1.891 16.277-5.86 22.065-9.521zm-34.135 50.763c-12.818 0-18.917-3.856-25.979-8.323-7.915-5.005-16.878-10.668-34.098-10.668-17.211 0-26.174 5.663-34.089 10.668-7.062 4.467-13.161 8.323-25.979 8.323-12.809 0-18.907-3.856-25.961-8.323-2.918-1.844-6.155-3.702-9.726-5.41 5.311-15.328 8.478-29.835 9.938-43.451.161-.631.217-1.244.212-1.884 2.09-21.636.035-40.952-4.136-57.628.001-1.146-.284-2.229-.776-3.253-6.277-23.157-16.428-40.941-24.392-52.349 28.703 3.859 86.421 16.776 128.673 58.568.485.652 1.082 1.183 1.774 1.659 24.918 25.381 43.873 61.351 47.866 111.809-1.136.07-2.069.262-3.327.262z"/><path d="m466.28 370.608c-12.846 0-18.963-3.865-26.025-8.332-7.934-4.996-16.905-10.668-34.145-10.668-17.239 0-26.22 5.672-34.135 10.668-7.081 4.467-13.189 8.332-26.035 8.332-12.818 0-18.917-3.856-25.979-8.323-7.915-5.005-16.878-10.677-34.098-10.677-17.211 0-26.183 5.672-34.089 10.677-7.062 4.467-13.161 8.323-25.979 8.323-12.809 0-18.907-3.856-25.961-8.323-7.906-5.005-16.868-10.677-34.089-10.677-17.202 0-26.155 5.672-34.052 10.677-7.053 4.467-13.142 8.323-25.933 8.323-12.818 0-18.907-3.856-25.97-8.323-7.906-5.005-16.868-10.677-34.08-10.677-4.189 0-7.591 3.401-7.591 7.591 0 4.189 3.401 7.591 7.591 7.591 12.809 0 18.907 3.856 25.961 8.323 7.906 5.005 16.868 10.677 34.089 10.677 17.202 0 26.155-5.672 34.052-10.677 7.053-4.467 13.143-8.323 25.933-8.323 12.818 0 18.907 3.856 25.97 8.323 7.906 5.005 16.868 10.677 34.08 10.677 17.221 0 26.183-5.672 34.098-10.677 7.062-4.467 13.152-8.323 25.97-8.323s18.917 3.856 25.979 8.323c7.915 5.005 16.878 10.677 34.098 10.677 17.239 0 26.22-5.672 34.135-10.668 7.081-4.467 13.189-8.332 26.035-8.332s18.963 3.865 26.025 8.332c7.934 4.996 16.905 10.668 34.145 10.668 4.189 0 7.6-3.401 7.6-7.591s-3.411-7.591-7.6-7.591z"/></svg>