<svg height="147" viewBox="0 0 141 147" width="141" xmlns="http://www.w3.org/2000/svg"><path d="m3.66621973 55.4007199c-2.36766507.2964378-4.14341387 2.6679402-3.5514976 5.0394426.29595813 2.3715024 2.6636232 4.1501292 5.03128827 3.5572536 4.14341387-.5928756 7.9908696-.5928756 11.5423672 0-5.9191627 7.410945-11.83832533 9.1895718-12.13428347 9.1895718-2.36766506.5928756-3.84745573 2.964378-3.25553947 5.3358804.59191627 2.3715024 2.95958134 3.8536914 5.32724641 3.2608158.29595813 0 10.35853463-2.964378 18.64536243-15.1183278 2.0717069.8893134 3.8474557 2.0750646 5.6232045 3.5572536 18.6453624 13.6361388 28.4119808 44.4656701 32.2594366 61.3626241-9.1747022 1.185752-18.3494043-1.778626-25.4523995-8.893134 7.6949115-7.707382 4.439372-17.48983-3.5514976-25.7900882-5.9191627-5.928756-6.2151208-9.1895717-6.2151208-10.3753229s.5919162-1.7786268.5919162-1.7786268c2.071707-1.482189 2.6636233-4.1501292 1.1838326-6.2251938s-4.1434139-2.6679402-6.2151208-1.1857512c.2959581.2964378-3.2555395 2.964378-3.8474558 8.0038206-1.4797906 12.7468253 15.389823 20.1577703 14.2059905 27.8651533 0 .889313-.5919163 1.778627-1.1838326 2.371502-8.878744-12.746825-16.8696136-19.8613324-23.38069253-20.7506458-3.84745574-.5928756-5.91916267.8893134-6.51107894 1.482189-1.7757488 1.482189-2.36766507 4.4465668-.59191626 6.2251938 1.47979066 1.778627 4.14341386 2.371502 6.2151208.592876 0 0 0 .592875-.29595813.592875 1.47979066.296438 7.39895336 2.371503 18.64536236 18.675582.5919163.889313 1.1838326 1.778626 1.7757488 2.371502-3.8474557.592876-7.6949114 1.778627-10.6544928 5.039443-4.1434138 4.150129-9.1747021 1.482189-9.76661836 1.185751-2.07170694-1.185751-4.73533014-.592876-6.21512081 1.482189-1.18383253 2.075064-.59191627 4.743005 1.47979067 6.225194 5.91916267 3.557253 14.5019485 3.557253 20.7170693-2.371503 3.8474558-3.853691 11.5423673-2.66794 14.7979067-1.778627 6.2151208 4.15013 13.0221579 5.928756 18.6453624 6.225194-.2959581 3.260816 2.071707 6.225194 5.6232046 6.225194h13.0221578c5.0312883 0 7.6949115-5.928756 4.1434139-9.782447 0-.296438-.2959581-.296438-.5919163-.592876 2.6636232-3.260816 6.8070371-6.521632 12.7261998-7.707383 4.7353301 8.596696 13.6140742 13.339701 24.5645252 10.671761 2.367665-.592876 3.847456-2.964378 3.255539-5.33588-.591916-2.371503-2.959581-3.853692-5.327246-3.260816-5.623205 1.185751-9.47066-.296438-11.838325-2.66794 14.501948-1.482189 20.717069-10.671761 21.900901-15.711204.591917-2.371502-.887874-4.743005-3.255539-5.33588-2.367665-.592876-4.73533.889313-5.327246 3.260816-.295959.889313-2.959582 9.782447-18.6453628 9.189571-12.1342835-.592875-20.4211112 5.335881-25.4523995 11.561075-.8878744-3.260816-1.7757488-7.410945-2.9595813-11.561075 8.2868277-3.260815 21.6049437-13.636138 26.3402739-23.7150236 2.0717069-.2964378 5.0312887-.8893134 8.5827857-2.0750646 2.663623 6.2251942 7.99087 13.0432632 18.053446 12.7468252 8.286828-.296438 10.950451.296438 11.542367.592876 1.775749 1.185751 3.847456 1.185751 5.623205-.296438 1.775749-1.778627 2.071707-4.446567.295958-6.225194-.887874-.8893132-3.255539-3.5572534-17.757488-2.9643778-5.919163.2964378-8.582786-4.7430048-9.766618-8.0038206 4.73533-3.5572535 6.511079-6.8180693 9.174702-11.2646363 5.327246-8.5966962 6.215121-9.7824474 15.685781-11.5610742 2.367665-.2964378 4.143414-2.6679402 3.551498-5.0394426-.591917-2.3715024-2.663624-4.1501292-5.031289-3.5572536-12.726199 2.3715024-15.389823 5.6323182-21.604943 15.4147656-3.551498 5.6323182-6.215121 10.375323-15.3898234 12.7468254 1.4797904-10.6717608-1.7757488-17.1933924 17.7574884-28.4580288 2.071707-1.1857512 2.959581-3.8536914 1.47979-6.2251938-1.183832-2.0750646-3.847455-2.964378-6.215121-1.482189-34.6271012 20.1577704-10.654492 32.0152824-30.4836873 50.6908637-2.0717069-2.3715024-4.1434139-5.6323182-3.5514976-8.3002584 3.2555395-15.7112033-3.8474557-19.2684569-5.3272464-19.8613325-5.3272464-1.7786268-8.5827859 5.6323182-3.5514976 8.0038206 4.1434139 5.0394426-5.6232045 13.0432631 5.6232045 25.7900883-3.2555394 2.371503-5.6232045 3.557254-7.1029952 4.150129-2.0717069-5.928756-4.7353301-12.4503872-7.6949114-18.675581 0-.2964378 0-.2964378 0-.5928756s.2959581-11.2646363 3.8474557-23.7150239c2.3676651.8893134 5.3272464 1.482189 8.878744 1.482189 2.6636232 0 5.3272464-.2964378 8.5827859-1.482189 2.367665-.8893134 3.5514976-3.5572536 2.6636232-5.6323182-.8878744-2.3715024-3.5514976-3.5572536-5.6232046-2.6679402-4.439372 1.7786268-8.2868277.8893134-10.9504509 0 1.4797907-3.2608158 2.9595813-6.2251938 5.0312883-9.1895718 5.0312882 2.6679402 11.246409 3.2608158 17.4615299 1.482189 2.367665-.5928756 3.8474557-2.964378 2.9595813-5.3358804-.5919163-2.3715024-2.9595813-3.8536914-5.3272464-2.964378-3.8474558 1.1857512-7.1029952.5928756-9.1747022 0 2.9595814-2.964378 6.511079-5.3358804 10.950451-7.1145072 5.6232045 3.8536914 12.4302418 5.3358804 19.2372788 4.1501292 2.367665-.2964378 4.143414-2.6679402 3.551497-5.0394426-.295958-2.3715024-2.663623-4.1501292-5.031288-3.5572536-2.663623.5928756-5.327246.2964378-7.3989531-.2964378 4.1434141-2.3715024 7.3989531-4.7430048 10.0625761-6.8180694 2.071707-.8893134 3.551498-5.3358804 10.062577-2.3715024 4.73533 2.3715024 8.582786 1.482189 10.654493.2964378 5.327246-2.6679402 6.511079-9.7824474 6.807037-10.6717608.295958-2.37150238-1.183833-4.74300478-3.847456-5.03944258-2.367665-.2964378-4.73533 1.1857512-5.031288 3.85369138-.295958 1.1857512-.887875 3.5572536-2.071707 3.8536914-.591916.2964378-2.071707-.2964378-2.663623-.5928756-1.775749-.8893134-3.847456-1.482189-5.327247-1.7786268 1.775749-5.33588038.295958-9.18957178.295958-9.48600958-1.47979-2.0750646-3.847455-3.5572536-6.21512-2.6679402s-3.551498 3.2608158-2.663624 5.6323182c0 0 1.479791 5.92875598-7.694911 13.04326318-2.3676651-4.446567-.887874-9.18957178-.887874-9.48600958.887874-2.3715024-.295959-4.7430048-2.6636237-5.6323182-2.367665-.8893134-4.7353301.2964378-5.6232045 2.6679402-.2959581.2964378-3.2555395 8.89313398 1.7757488 17.19339238-2.3676651 1.1857512-5.0312883 2.6679402-8.2868277 3.8536914-1.4797907-3.2608158-1.1838326-8.893134-.8878744-11.857512.2959581-2.3715024-1.1838326-4.7430048-3.5514977-5.0394426-2.367665-.2964378-4.7353301 1.1857512-5.0312882 3.5572536-.2959582 1.1857512-1.7757488 10.6717608 1.7757488 17.4898302-6.511079 4.1501292-11.5423672 9.7824474-15.389823 16.0076412-1.1838325-1.482189-2.6636232-2.964378-4.7353301-4.7430048 2.9595813-3.2608158 5.6232045-8.0038206 5.3272464-14.2290144 0-2.3715024-2.3676651-4.446567-4.7353301-4.1501292-2.3676651 0-4.439372 2.3715024-4.1434139 4.7430048.2959581 3.8536914-1.7757488 6.5216316-3.8474557 8.5966962-2.3676651-1.482189-5.3272464-2.964378-8.5827859-4.1501292 3.2555395-2.3715024 6.5110789-5.928756 7.9908696-11.2646364.2959581-2.3715024-1.1838325-4.7430048-3.5514976-5.3358804s-4.7353301.8893134-5.3272464 3.2608158c-1.4797907 6.2251938-8.878744 8.3002584-9.1747021 8.3002584-.2959582 0-.5919163.2964378-.5919163.2964378-2.6636232-1.482189-4.7353302-3.5572536-6.2151208-5.3358804 3.5514976-2.6679402 8.2868277-7.410945 8.5827859-14.82188998.2959581-2.3715024-1.7757488-4.446567-4.1434139-4.7430048s-4.439372 1.482189-4.7353302 4.1501292c-.2959581 3.55725358-2.6636232 6.22519378-4.7353301 7.70738278-2.3676651-5.3358804-2.6636232-10.07888518-2.6636232-10.37532298 0-2.3715024-2.0717069-4.446567-4.7353301-4.1501292-2.3676651 0-4.43937203 2.0750646-4.1434139 4.7430048 0 .5928756.59191627 10.67176078 7.1029952 20.15777038-4.1434139 1.1857512-8.28682773 0-8.58278587-.2964378-2.36766506-1.1857512-4.73533013 0-5.62320453 2.3715024s.29595813 4.7430048 2.6636232 5.6323182c.29595813 0 3.5514976 1.1857512 7.9908696 1.1857512 2.9595813 0 6.5110789-.5928756 9.7666184-2.3715024 6.8070371 5.928756 12.1342835 6.8180694 18.3494043 9.7824474-3.2555395.2964378-5.9191627-.5928756-5.9191627-.5928756-2.367665-.8893134-4.7353301.2964378-5.6232045 2.6679402s.2959581 4.7430048 2.6636232 5.6323182c5.3272464 1.7786268 13.0221579 1.7786268 18.6453624-2.0750646h.2959581c5.0312883 3.8536914 7.1029952 7.1145072 7.9908696 8.3002584-.2959581.8893134-.8878744 1.7786268-1.1838325 2.964378-1.1838325 1.7786268-4.1434139 12.1539498-5.0312883 19.5648948-4.1434138-6.2251938-9.1747021-11.857512-15.0938648-16.0076412-2.9595813-2.0750646-5.9191626-3.8536914-8.878744-5.0394426-6.5110789-13.6361388-16.5736555-19.8613326-16.8696136-20.1577704-2.07170693-1.1857512-4.73533013-.5928756-6.2151208 1.482189-1.18383253 2.0750646-.59191627 4.7430048 1.47979067 6.2251938 0 0 4.73533013 2.964378 9.17470213 9.4860096-3.8474557-.5928756-7.9908696-.5928756-12.13428347.2964378z"/></svg>