<svg viewBox="0 0 32 40" >
  <path d="M27.724,27.85a3.4,3.4,0,0,0,.825-2.672l-1.8-14.4A3.405,3.405,0,0,0,23.375,7.8h-.521a5.173,5.173,0,0,0-10.32,0H3.894a1,1,0,0,0,0,2H8.929a3.316,3.316,0,0,0-.29.978l-.382,3.055a.889.889,0,0,0-.163-.033h-3a1,1,0,0,0,0,2H8.011L6.839,25.178A3.4,3.4,0,0,0,10.212,29H25.175A3.4,3.4,0,0,0,27.724,27.85ZM17.694,5a3.2,3.2,0,0,1,3.16,2.8h-6.32A3.194,3.194,0,0,1,17.694,5ZM9.163,26.526a1.384,1.384,0,0,1-.34-1.1l1.8-14.4A1.4,1.4,0,0,1,12.013,9.8h.481V13a1,1,0,0,0,2,0V9.8h6.4V13a1,1,0,0,0,2,0V9.8h.481a1.4,1.4,0,0,1,1.39,1.226l1.8,14.4A1.4,1.4,0,0,1,25.175,27H10.212A1.38,1.38,0,0,1,9.163,26.526Z"/>
  <path d="M7.894,11.8a1,1,0,0,0-1-1h-3a1,1,0,0,0,0,2h3A1,1,0,0,0,7.894,11.8Z"/>
</svg>