<svg height="382" viewBox="0 0 427 382" width="427" xmlns="http://www.w3.org/2000/svg" xmlns:xlink="http://www.w3.org/1999/xlink"><linearGradient id="a"><stop offset="0" stop-color="#a4ebff"/><stop offset=".761267138" stop-color="#d8cce8"/><stop offset="1" stop-color="#e3cdda"/><stop offset="1" stop-color="#ffceb5"/><stop offset="1" stop-color="#e99cff"/></linearGradient><linearGradient id="b" x1="100%" x2="0%" xlink:href="#a" y1="48.032863%" y2="48.029573%"/><linearGradient id="c" x1="100%" x2="0%" xlink:href="#a" y1="48.31124%" y2="48.308415%"/><linearGradient id="d" x1="100%" x2="0%" y1="48.69838%" y2="48.696203%"><stop offset="0" stop-color="#e99cff"/><stop offset="0" stop-color="#ffceb5"/><stop offset="0" stop-color="#e3cdda"/><stop offset=".238732862" stop-color="#d8cce8"/><stop offset="1" stop-color="#a4ebff"/></linearGradient><linearGradient id="e" x1="100%" x2="0%" xlink:href="#a" y1="47.686009%" y2="47.682138%"/><linearGradient id="f" x1="110.568077%" x2="-23.003418%" y1="50%" y2="50%"><stop offset="0" stop-color="#a4ebff"/><stop offset=".668036372" stop-color="#d8cce8"/><stop offset="1" stop-color="#f2b5ff"/><stop offset="1" stop-color="#f49cff"/></linearGradient><linearGradient id="g" x1="100%" x2="0%" xlink:href="#a" y1="47.720315%" y2="47.716501%"/><linearGradient id="h" x1="100%" x2="0%" xlink:href="#a" y1="48.214721%" y2="48.211735%"/><filter id="i"><feColorMatrix in="SourceGraphic" type="matrix" values="0 0 0 0 0.000000 0 0 0 0 0.000000 0 0 0 0 0.000000 0 0 0 0.850000 0"/></filter><g fill="none" fill-rule="evenodd"><g transform="translate(26 94)"><path d="m0 0h98v55h-97.96512203z" fill="url(#b)" fill-rule="nonzero" transform="matrix(-1 0 0 -1 98 55)"/><text fill="#000" fill-opacity=".85" font-family="sans-serif" font-size="12" font-weight="600"><tspan x="6.042" y="15">Partnering with</tspan><tspan x="9.498" y="31">artisans of the</tspan><tspan x="33.39" y="47">world</tspan></text></g><g transform="translate(27 206)"><path d="m0 0h75v39h-74.97330767z" fill="url(#c)" fill-rule="nonzero" transform="matrix(-1 0 0 -1 75 39)"/><text fill="#000" fill-opacity=".85" font-family="sans-serif" font-size="12" font-weight="600"><tspan x="7.374" y="15">Adjustable</tspan><tspan x="20.82" y="31">Sizing</tspan></text></g><g transform="translate(87.5 310)"><path d="m2.5 0h92v42h-92z" fill="url(#d)"/><text fill="#000" fill-opacity=".85" font-family="sans-serif" font-size="12" font-weight="600"><tspan x="8.418" y="18">Ethical Supply</tspan><tspan x="32.22" y="34">Chain</tspan></text></g><g transform="translate(260 311)"><path d="m0 0h69v42h-68.97544306z" fill="url(#e)" fill-rule="nonzero" transform="matrix(-1 0 0 -1 69 42)"/><text fill="#000" fill-opacity=".85" font-family="sans-serif" font-size="12" font-weight="600"><tspan x="7.12" y="17">Empower</tspan><tspan x="12.454" y="33">Women</tspan></text></g><g transform="translate(317 206)"><path d="m0 0h80v54h-79.97152819z" fill="url(#f)" fill-rule="nonzero" transform="matrix(-1 0 0 -1 80 54)"/><text fill="#000" fill-opacity=".85" font-family="sans-serif" font-size="12" font-weight="600"><tspan x="12.646" y="15">Inclusivity</tspan><tspan x="3.868" y="31">and diversity</tspan><tspan x="15.67" y="47">(XS-XXL)</tspan></text></g><g transform="translate(302 110)"><path d="m1 0h96v58h-95.96583339z" fill="url(#g)" fill-rule="nonzero" transform="matrix(-1 0 0 -1 98 58)"/><text fill="#000" fill-opacity=".85" font-family="sans-serif" font-size="12" font-weight="600"><tspan x="8.504" y="16">Encompassing</tspan><tspan x="6.71" y="32">Positive Values</tspan><tspan x="19.712" y="48">and Ethics</tspan></text></g><g transform="translate(168 27)"><path d="m0 0h101v54h-100.96405433z" fill="url(#h)" fill-rule="nonzero" transform="matrix(-1 0 0 -1 101 54)"/><text fill="#000" fill-opacity=".85" font-family="sans-serif" font-size="12" font-weight="600"><tspan x="16" y="23">Sustainable</tspan> <tspan x="23" y="39">Fashion</tspan></text></g><g fill="#000" fill-opacity=".9" fill-rule="nonzero"><path d="m288.561502 69 .413738.2807507 20.965249 14.2267379 2.247212-3.309403 4.920526 8.777154-9.974038-1.329872 2.2453-3.309879-20.965751-14.2272621-.413738-.2807507z"/><path d="m346 175v16h4l-4.5 9-4.5-9h4v-16z"/><path d="m345.188161 278 .806405.591363-.295682.403203-5.974202 8.145318 3.226414 2.365694-8.951096 4.596508 1.693451-9.918781 3.225231 2.364579 5.973798-8.144682z"/><path d="m67.1876525 267.109566 9.136165 4.216691-3.1238175 2.497743 6.6904344 8.363652.3123475.390435-.7808688.624695-7.0029131-8.753782-3.1230017 2.499513z"/><path d="m62.7362305 164 2.0824807 9.844454-3.8706916-1.010645-3.8541914 14.776211-.1262109.483809-.9676173-.252422.126211-.483809 3.8538086-14.775789-3.8698639-1.009152z"/><path d="m134.118022 62 9.992225 1.1855182-6.943749 7.2824685-1.355695-3.7631088-17.00164 6.1204437-.470444.1693597-.338719-.9408874.470443-.1693597 17.00236-6.1215563z"/><path d="m206.538462 329v4.888889h38.461538v1.222222h-38.461538v4.888889l-11.538462-5.5z"/></g><g transform="translate(176 171)"><g filter="url(#i)"><g fill="#fff" fill-rule="nonzero" transform="translate(0 20)"><path d="m46.1868133 15.2408695c0-1.9041275-.0336708-3.808255.0224472-5.71238253.0102323-.51863833.1984285-1.01044476.5218975-1.36385603.4573617-.37884889.8726349.09883015 1.1363896.57980353.2637546.48097338.6004626.37555456.9512001.16142257 2.6347403-1.60434272 5.0365908-1.20902213 7.1718809 1.18596176.5836272.6588677.956812.3294338 1.4029501-.17459992 1.0669128-1.25093404 2.5158743-1.94849311 4.0236609-1.93707088 3.1566377 0 5.5276233 2.6058215 5.6118003 6.2592426.056118 2.2829764.0224472 4.5692472.0140295 6.8522236.0195463.3786375-.0321855.7576819-.1515186 1.110192-.1352108.2701062-.3694091.4513894-.6341334.4908563-.2654819-.0240088-.5047694-.1969902-.6425512-.4645016-.1368836-.4593031-.2043053-.9431712-.1992189-1.4297428-.0224472-1.5779881 0-3.1559761-.0168354-4.7306697-.0026903-.7063757-.0448695-1.4117824-.1262655-2.1116708-.308649-2.5004028-1.9248475-4.03556438-4.0910025-3.9235569-2.0061259.0660637-3.6161638 1.9665091-3.6616997 4.3221718-.0701475 2.1182595-.0168354 4.2398133-.028059 6.3613671.0311377.4329956-.0030576.8690454-.1010124 1.2880863-.1010124.2964904-.4349145.701694-.648163.6885166-.3481001-.049225-.6611163-.2726101-.8586054-.6127469-.168354-.3294338-.1374891-.8400562-.140295-1.2716145-.0140295-2.0655501.0252531-4.1343945-.0196413-6.1999446-.0617298-2.8133648-1.7845525-4.67466593-4.1555382-4.5659528-1.9486197.035887-3.5290212 1.8638332-3.5887463 4.1508662-.056118 2.0655501-.0168354 4.1343945-.0252531 6.1999446.010085.4341392-.0124494.868477-.0673416 1.2979692-.0897889.5699205-.339514 1.0541883-.9119176 1.0344222-.5724036-.019766-.7519813-.5534488-.7688167-1.1365467-.0252531-.8137015-.0224472-1.6306974-.0224472-2.4476933 0-1.3177353 0-2.6091158 0-3.9136738z"/><path d="m2.31624689 19.0091795c.37007138-.3974811.75416061-.7816015 1.12142842-1.1957835 2.41854729-2.8191094 4.83616006-5.6426725 7.25283829-8.47068913.2326964-.27055434.4597857-.54444887.7036963-.8016425.412125-.44090338.8831249-.74819968 1.3373034-.1603285.4541785.58787117.2607321 1.14902092-.1317678 1.62666623-1.0737677 1.3026691-2.1671604 2.5786168-3.25214242 3.8612448-.2326964.2705543-.46539279.5377685-.71491062.7882818-.5999642.604572-.56071421 1.1657218 0 1.7903349 1.21301174 1.3650191 2.41013654 2.7511926 3.59137454 4.1585205.7737856.9152085.9167677 1.6099654.4934285 2.1176723s-.8943392.3340177-1.7550355-.6680354c-1.1999284-1.3828333-2.40546395-2.7589863-3.5829638-4.1718812-.54389278-.6680355-.98966058-.6312935-1.52794622 0-1.20833912 1.4496368-2.44751752 2.8658719-3.68108879 4.2887874-.39810709.4576042-.79901775 1.0321147-1.43542837.7314988-.63641063-.300616-.72892848-1.0621764-.72892848-1.8036957 0-6.3352026.08130356-19.53385431.08130356-19.81059045 0-.46428462.35427303-1.09332133.90345914-1.09332133.56471644 0 .81232635.51213051.84877277 1.09332133.03083928.49434621 0 10.95578095 0 15.65206995 0 .6346337.07289285 1.2692673.11214284 1.903901z"/><path d="m27.6858589 21.1154252c-.4945156.3323346-.8102233.5450288-1.1175494.7610463-2.9894446 2.0737682-6.6354494 1.2196682-8.6610077-2.0903849-1.4388448-2.3263425-1.5310426-4.9418162-.5587747-7.4841763.972268-2.54236002 2.7771102-4.02457255 5.1993985-4.32035039 3.6487987-.43535839 6.9846836 2.62212039 7.1271712 7.61378679.0502897 1.861074.0167632 3.7221481 0 5.5865454.0360801.3252984-.0096106.6560217-.1313121.9504771-.2039793.3331554-.5011755.5688344-.838162.6646693-.2123344.0332335-.5252482-.3323346-.7040561-.6081724-.1788079-.2758377-.1816018-.5682922-.3157077-1.0734409zm-4.4701975-11.0735705c-2.715645-.0164367-4.6825319 2.2567323-4.6853258 5.4105881-.0251252 1.441927.4432298 2.8341426 1.2976667 3.8573985.854437 1.0232558 2.0216537 1.5897668 3.233996 1.5696263 2.6457982.0398802 4.7747298-2.3097258 4.8334011-5.3173544.0586713-3.0076285-2.0674663-5.5067851-4.679738-5.5202585z"/><path d="m83.9548395 17.8557303v3.7822921c0 .5754938-.1385916 1.2175188-.7184137 1.1875798-.37773-.0998739-.6926647-.4048389-.8485202-.8216589-.3224376-1.1044159-.7495261-.6120859-1.2558098-.2594712-3.3375125 2.3285879-7.3283856 1.3572341-9.2177571-2.4084252-1.1530729-2.2648286-1.2127186-5.0746878-.1571748-7.4043683 1.0555438-2.32968045 3.071889-3.83843353 5.3133488-3.97577332 3.8805655-.28608366 7.1162556 3.44963662 6.921096 7.59452302-.0367692.7651075 0 1.536868 0 2.305302zm-6.4544099 3.037144c1.6751077.0618705 3.2472787-.9483178 4.1080337-2.6395904s.8750207-3.7982279.0372757-5.5054083c-.8377449-1.7071804-2.396038-2.7466879-4.071771-2.7162006-2.684152-.0266124-4.8082808 2.3285879-4.8393932 5.3823646s2.0873596 5.4788347 4.7658548 5.4788347z"/><path d="m36.3773436 9.78843401c.9131246-.47337829 1.7783382-1.01296334 2.694281-1.36716947.5792153-.20133747 1.1881181-.25661417 1.7867931-.16220655.332921.12426577.5882863.44046322.6763885.83751544.0225463.3078614-.3043748.74482598-.5636571.95006687-.2592823.205241-.6284777.1522756-.9497622.2184823-2.2115887.3638432-3.8633131 2.5742658-3.8835976 5.1972302-.0366377 1.744548 0 3.4924063-.0169097 5.2369543.0099258.3312631.002396.6629303-.0225462.9931013-.078912.6918606-.2818286 1.3605488-.9976731 1.304273-.7778469-.0628964-.7468457-.8441361-.749664-1.4962726-.0112731-3.8686813-.0112731-7.740673 0-11.615975 0-.64220551-.078912-1.42675555.6594788-1.59558277s.9413074.509792 1.1273142 1.15199752c.0658944.12822443.1465024.24518405.2395543.34758546z"/></g></g><text fill="#000" fill-opacity=".9" fill-rule="nonzero" font-family="sans-serif" font-size="18"><tspan x="22" y="18">OUR</tspan></text></g></g></svg>