<svg viewBox="0 0 60 75" xmlns="http://www.w3.org/2000/svg"><g fill="none" stroke="#000" stroke-linecap="round" stroke-linejoin="round" stroke-width="2"><path d="m27.5 14.45a8.03936 8.03936 0 0 1 -7.5 5.55 8.26311 8.26311 0 0 1 -8-8.5q0-.26588.0151-.5285a2.00788 2.00788 0 0 1 1.87943-1.9092c1.20841-.0623 2.71785-.0623 4.60547-.0623 4.18994 0 7.74 2.28 9 5.45z"/><path d="m32.5 14.45a8.03936 8.03936 0 0 0 7.5 5.55 8.26311 8.26311 0 0 0 8-8.5q0-.26588-.0151-.5285a2.00788 2.00788 0 0 0 -1.87943-1.9092c-1.20841-.0623-2.71785-.0623-4.60547-.0623-4.18994 0-7.74 2.28-9 5.45z"/><path d="m15 9v-8"/><path d="m45 9v-8"/><path d="m26.18 16.88v.01a4.02568 4.02568 0 0 0 3.82 2.11 4.02568 4.02568 0 0 0 3.82-2.11v-.01"/><path d="m43.99915 19.17c-1.89907 2.6-6.01891 8.93-4.07833 12.83 1.017 2.03 4.00569 6.82 6.92174 11.28a.99228.99228 0 0 1 -.68491 1.51 14.69391 14.69391 0 0 0 -12.01706 13.28 1.04219 1.04219 0 0 1 -1.06887.93h-6.14344a1.04219 1.04219 0 0 1 -1.06887-.93 14.69391 14.69391 0 0 0 -12.01706-13.28.99228.99228 0 0 1 -.68491-1.51c2.91606-4.46 5.90476-9.25 6.92174-11.28 1.96133-3.93-2.24152-10.33-4.11984-12.89a.00991.00991 0 0 1 -.01038-.01"/><path d="m27.5 14.45001h5"/><path d="m24.35 39.44c5.36-8.89-1.35-19.44-1.35-19.44"/><path d="m37 20s-6.71 10.55-1.35 19.44"/><path d="m24.35 39.44a11.8042 11.8042 0 0 1 11.3 0"/><path d="m36.26 51.11-3.23207-5.39438a3.52982 3.52982 0 0 0 -3.02793-1.71562h-.001a3.52983 3.52983 0 0 0 -3.02717 1.71437l-3.27183 5.45563"/><path d="m13.75 44.76a4.47258 4.47258 0 0 1 -1.44 2.8c-1.36 1.37-3.11 1.84-3.89 1.06s-.3-2.52 1.06-3.89c1.21-1.21 2.72-1.72 3.59-1.27"/><path d="m15.75 51c.7-2.12-.59-4.75-1.41-6.1"/><path d="m46.93 43.46c.87-.45 2.38.06 3.59 1.27 1.36 1.37 1.84 3.11 1.06 3.89s-2.53.31-3.89-1.06a4.47258 4.47258 0 0 1 -1.44-2.8"/><path d="m45.66 44.9c-.82 1.35-2.11 3.98-1.41 6.1"/></g></svg>