<svg viewBox="0 0 56 70" xmlns="http://www.w3.org/2000/svg"><path d="m55 28a1 1 0 0 0 1-1v-3a1 1 0 0 0 -1-1h-6a2 2 0 0 0 -2-2h-2a2 2 0 0 0 -2 2h-6.64l-.56-2h2.2a2 2 0 0 0 2-2v-11a2 2 0 0 0 -2-2h-20a2 2 0 0 0 -2 2v11a2 2 0 0 0 2 2h1.88l-.5 2h-7.38a3 3 0 0 0 -3-3h-1v-9.67s0 0 0-.07a3.13 3.13 0 0 1 .27-1.6 1.18 1.18 0 0 1 .42-.47 1.48 1.48 0 0 1 .81-.19 1.5 1.5 0 0 1 1.13.38 1.39 1.39 0 0 1 .34.81 3 3 0 1 0 2 0 3.42 3.42 0 0 0 -.9-2.19 3.48 3.48 0 0 0 -2.57-1 3.47 3.47 0 0 0 -1.86.49 3.18 3.18 0 0 0 -1.13 1.23 5.09 5.09 0 0 0 -.51 2.64v9.64h-1a3 3 0 0 0 -3 3h-1a1 1 0 0 0 -1 1v3a1 1 0 0 0 1 1h3v20h-3a1 1 0 1 0 0 2h54a1 1 0 1 0 0-2h-3v-20zm-43-17a1 1 0 1 1 -1 1 1 1 0 0 1 1-1zm42 14v1h-16.81l-.28-1zm-36-6v-11h20v11h-2.75l-1-3.49a1.94 1.94 0 0 0 -1.25-1.35 15.5 15.5 0 0 0 -10.45 0 2 2 0 0 0 -1.31 1.4l-.86 3.44zm5.17-2.93a15.8 15.8 0 0 1 4.6-.81 15 15 0 0 1 4.59.81l4.25 15.29a22 22 0 0 1 -7.78 1.64h-1a26.88 26.88 0 0 1 -8.46-1.73zm1.54 21.56-3.18 5.25 1.68-6.88zm1.81.87h3.35l5.42 9.5h-14.52zm5.14-.9 1.16-1.42 1.49 6.08zm-.45-2.6-1.21 1.49h-3.61l-1.39-1.49h2.43 2 1.76zm-26.21-13h4a1 1 0 0 1 1 1h-6a1 1 0 0 1 1-1zm-3 4v-1h16.88l-.26 1a.94.94 0 0 0 -.14 0zm5 2v20h-1v-20zm2 0h9.13l-.7 2.81a1.94 1.94 0 0 0 1.2 2.31c1 .37 2 .68 3 .95l-3.42 13.93h-9.21zm28.79 20-3.39-13.81a27.82 27.82 0 0 0 3-1 1.92 1.92 0 0 0 1.11-2.31l-.76-2.88h9.25v20zm12.21 0h-1v-20h1z"/></svg>