<svg enable-background="new 0 0 1024 1024" viewBox="0 0 1024 1280" xmlns="http://www.w3.org/2000/svg"><path d="m248 744.1c-5.7 0-11.4-1.2-16.8-3.6-10-4.5-17.6-12.6-21.5-22.8l-76.7-202.2c-3.9-10.2-3.5-21.3.9-31.3 4.5-10 12.6-17.6 22.8-21.5l265.9-100.9 105.8 278.7-265.8 100.9c-4.7 1.8-9.6 2.7-14.6 2.7zm157.3-343.5-237.8 90.3c-2.7 1-4.9 3.1-6.1 5.7-1.2 2.7-1.3 5.6-.3 8.4l76.7 202.2c1 2.7 3.1 4.9 5.7 6.1 2.7 1.2 5.6 1.3 8.4.3l237.8-90.3z"/><path d="m149.8 733.5c-21.6 0-42-13.2-50.1-34.6l-36.5-96.3c-10.5-27.6 3.5-58.6 31.1-69.1l68.1-25.8 74.6 196.4-68.3 25.9c-6.2 2.4-12.6 3.5-18.9 3.5zm-5-187.1-40 15.2c-12.1 4.6-18.3 18.2-13.7 30.4l36.5 96.3c4.6 12.1 18.2 18.3 30.4 13.7l40-15.2z"/><path d="m837.3 704.2c-1.4 0-2.8-.1-4.2-.4l-334.9-58.7-101.3-266.6 211.6-266.1c5.5-6.9 14.3-10.4 23.1-9 8.7 1.4 16.1 7.3 19.2 15.6l209.4 551.9c3.1 8.3 1.6 17.6-4 24.4-4.6 5.7-11.7 8.9-18.9 8.9zm-317.2-85.7 308.8 54.1-202.7-534.1-195.1 245.4z"/><path d="m385.4 920.9c-7.4 0-14.5-4.1-18-11.1l-102.5-201.3 168.7-64 20 52.6c7.4 19.6 4.5 41.4-7.8 58.4l-10.2 14.1 47.9 91.3c2.7 5.1 3.1 11.2 1 16.6s-6.3 9.7-11.8 11.8l-80.1 30.4c-2.3.8-4.8 1.2-7.2 1.2zm-78.6-196.3 83.3 163.8 61.7-23.4-51.5-98 21.2-29.2c6.4-8.7 7.9-20 4-30.1l-9.3-24.5z"/><path d="m874.6 296.6h30v94.9h-30z" transform="matrix(.3548 .9349 -.9349 .3548 895.6475 -609.7243)"/><path d="m779.6 149.5h30v95h-30z" transform="matrix(.7218 .6921 -.6921 .7218 357.4048 -495.1239)"/><path d="m868.6 502.2h94.9v30h-94.9z" transform="matrix(.9967 .0808816 -.0808816 .9967 44.8301 -72.3997)"/><path d="m289.2 427.1h30v157.1h-30z" transform="matrix(.3548 .9349 -.9349 .3548 669.0283 41.8383)"/></svg>