<svg enable-background="new 0 0 512 512" viewBox="0 0 512 640" xmlns="http://www.w3.org/2000/svg"><path d="m146.276 442.55c-9.871 0-19.638-1.38-29.028-4.103-2.081-.604-3.277-2.779-2.674-4.859.603-2.079 2.78-3.273 4.858-2.674 8.681 2.517 17.712 3.793 26.844 3.793 53.076 0 96.257-43.144 96.257-96.176 0-53.076-43.181-96.258-96.257-96.258-53.032 0-96.176 43.182-96.176 96.258 0 26.17 10.32 50.639 29.062 68.897 1.551 1.512 1.583 3.994.072 5.545-1.511 1.552-3.994 1.585-5.546.073-20.269-19.748-31.432-46.212-31.431-74.516 0-57.401 46.663-104.101 104.019-104.101 57.401 0 104.1 46.699 104.1 104.101 0 57.358-46.699 104.02-104.1 104.02z"/><path d="m146.276 442.55c-22.444 0-43.803-7.041-61.766-20.364-.997-.739-1.585-1.907-1.585-3.149v-54.632c0-1.613.988-3.061 2.489-3.65l35.376-13.887c1.838-.722 3.924.035 4.872 1.767l12.203 22.273 5.639-5.64c1.494-1.493 3.903-1.537 5.447-.096l5.076 4.732 13.036-21.425c.99-1.629 3.009-2.31 4.783-1.612l35.02 13.746c2.016.792 3.009 3.068 2.218 5.084-.792 2.017-3.069 3.01-5.083 2.218l-31.95-12.542-13.825 22.721c-.613 1.008-1.647 1.687-2.815 1.848-1.17.156-2.347-.214-3.209-1.018l-5.828-5.433-6.66 6.66c-.873.874-2.106 1.28-3.329 1.11-1.222-.176-2.291-.916-2.883-1.998l-13.058-23.834-29.673 11.647v49.961c16.267 11.567 35.415 17.669 55.508 17.669 20.146 0 39.322-6.103 55.591-17.669v-3.998c0-2.166 1.756-3.922 3.922-3.922s3.921 1.756 3.921 3.922v5.996c0 1.242-.588 2.41-1.585 3.149-17.966 13.325-39.353 20.366-61.852 20.366z"/><path d="m106.852 434.531c-2.166 0-3.921-1.756-3.921-3.922v-50.004c0-2.166 1.756-3.922 3.921-3.922s3.921 1.756 3.921 3.922v50.004c0 2.166-1.756 3.922-3.921 3.922z"/><path d="m185.702 434.531c-2.166 0-3.921-1.756-3.921-3.922v-50.004c0-2.166 1.756-3.922 3.921-3.922 2.166 0 3.922 1.756 3.922 3.922v50.004c0 2.166-1.756 3.922-3.922 3.922z"/><path d="m146.856 345.017c-22.262 0-33.435-29.911-33.435-46.657 0-18.434 14.999-33.431 33.435-33.431 18.388 0 33.348 14.997 33.348 33.431.001 16.283-11.453 46.657-33.348 46.657zm0-72.246c-14.111 0-25.591 11.479-25.591 25.588 0 13.684 9.716 38.814 25.591 38.814 15.821 0 25.505-25.131 25.505-38.814 0-14.109-11.441-25.588-25.505-25.588z"/><path d="m169.17 295.503c-8.096 0-15.796-2.419-21.683-6.812-1.736-1.296-2.093-3.754-.797-5.489 1.295-1.736 3.753-2.09 5.489-.798 4.474 3.34 10.668 5.256 16.992 5.256 2.081 0 4.121-.283 5.665-.53 2.138-.342 4.15 1.116 4.491 3.256.341 2.139-1.116 4.148-3.255 4.49-1.831.292-4.27.627-6.902.627z"/><path d="m131.318 294.925c-4.784 0-9.422-.836-13.786-2.483-2.026-.766-3.048-3.028-2.284-5.055.766-2.025 3.031-3.048 5.054-2.283 3.427 1.294 7.236 1.978 11.016 1.978 12.12 0 22.359-6.834 22.359-14.924 0-2.166 1.756-3.922 3.921-3.922 2.166 0 3.922 1.756 3.922 3.922.001 12.767-13.266 22.767-30.202 22.767z"/><path d="m154.874 379.978c-.986 0-1.943-.372-2.674-1.054l-8.597-8.015c-1.453-1.355-1.664-3.581-.491-5.184l17.355-23.723c.658-.9 1.668-1.478 2.776-1.588 1.111-.106 2.213.257 3.035 1.009l6.781 6.2c1.383 1.265 1.678 3.331.704 4.933l-15.539 25.537c-.613 1.008-1.647 1.687-2.815 1.848-.179.024-.358.037-.535.037zm-3.377-12.431 2.529 2.357 11.359-18.669-1.172-1.071z"/><path d="m136.938 381.301c-.185 0-.37-.014-.556-.039-1.222-.176-2.291-.916-2.883-1.998l-14.716-26.861c-.864-1.577-.544-3.54.774-4.762l6.693-6.2c.821-.759 1.923-1.138 3.041-1.026 1.113.107 2.128.685 2.789 1.588l17.361 23.723c1.142 1.561.976 3.722-.392 5.089l-9.338 9.338c-.74.74-1.74 1.148-2.773 1.148zm-9.807-29.985 10.733 19.591 3.263-3.263-12.776-17.458z"/><path d="m365.642 442.55c-9.87 0-19.635-1.379-29.023-4.102-2.079-.603-3.277-2.778-2.674-4.858.602-2.079 2.779-3.275 4.858-2.674 8.678 2.516 17.708 3.791 26.839 3.791 53.077 0 96.258-43.144 96.258-96.176 0-53.076-43.181-96.258-96.258-96.258-53.027 0-96.168 43.182-96.168 96.258.001 26.173 10.321 50.642 29.06 68.899 1.552 1.512 1.584 3.994.072 5.545-1.513 1.552-3.995 1.584-5.545.073-20.268-19.747-31.429-46.212-31.43-74.518 0-57.401 46.658-104.101 104.011-104.101 57.401 0 104.102 46.699 104.102 104.101-.001 57.358-46.701 104.02-104.102 104.02z"/><path d="m365.642 442.55c-22.44 0-43.796-7.041-61.761-20.364-.997-.739-1.585-1.907-1.585-3.149v-54.632c0-1.613.987-3.061 2.488-3.65l35.377-13.887c1.837-.721 3.925.034 4.874 1.768l12.196 22.271 5.636-5.639c1.495-1.495 3.902-1.536 5.448-.096l5.075 4.732 13.036-21.425c.991-1.629 3.008-2.309 4.783-1.612l35.027 13.748c2.015.792 3.008 3.068 2.217 5.084-.792 2.016-3.067 3.01-5.084 2.218l-31.957-12.544-13.825 22.721c-.613 1.008-1.646 1.687-2.814 1.848-1.17.156-2.347-.213-3.21-1.018l-5.826-5.433-6.659 6.66c-.874.874-2.113 1.28-3.329 1.11-1.223-.176-2.291-.916-2.885-1.999l-13.05-23.833-29.676 11.647v49.961c16.268 11.567 35.413 17.669 55.503 17.669 20.145 0 39.32-6.103 55.591-17.669v-3.99c0-2.166 1.756-3.922 3.922-3.922 2.165 0 3.921 1.756 3.921 3.922v5.988c0 1.242-.588 2.41-1.585 3.149-17.965 13.325-39.351 20.366-61.848 20.366z"/><path d="m326.296 434.531c-2.165 0-3.921-1.756-3.921-3.922v-50.004c0-2.166 1.756-3.922 3.921-3.922 2.166 0 3.922 1.756 3.922 3.922v50.004c0 2.166-1.756 3.922-3.922 3.922z"/><path d="m405.073 434.531c-2.166 0-3.922-1.756-3.922-3.922v-50.004c0-2.166 1.756-3.922 3.922-3.922s3.922 1.756 3.922 3.922v50.004c0 2.166-1.756 3.922-3.922 3.922z"/><path d="m366.223 345.017c-21.948 0-33.429-30.374-33.429-46.657 0-18.434 14.996-33.431 33.429-33.431 18.431 0 33.426 14.997 33.426 33.431-.001 16.283-11.481 46.657-33.426 46.657zm0-72.246c-14.107 0-25.585 11.479-25.585 25.588 0 13.684 9.714 38.814 25.585 38.814 15.87 0 25.583-25.131 25.583-38.814 0-14.109-11.477-25.588-25.583-25.588z"/><path d="m388.543 295.503c-8.021 0-15.907-2.489-21.632-6.83-1.727-1.309-2.065-3.769-.757-5.494s3.769-2.063 5.494-.756c4.391 3.328 10.549 5.237 16.895 5.237 1.637 0 3.331-.158 5.666-.53 2.132-.342 4.148 1.118 4.488 3.258.34 2.139-1.119 4.148-3.258 4.488-1.835.292-4.277.627-6.896.627z"/><path d="m350.684 294.925c-4.779 0-9.416-.836-13.781-2.483-2.025-.766-3.048-3.027-2.283-5.055.765-2.025 3.026-3.048 5.054-2.283 3.428 1.294 7.234 1.978 11.011 1.978 12.124 0 22.366-6.834 22.366-14.924 0-2.166 1.756-3.922 3.921-3.922 2.166 0 3.922 1.756 3.922 3.922-.001 12.767-13.271 22.767-30.21 22.767z"/><path d="m374.238 379.978c-.986 0-1.944-.372-2.675-1.054l-8.597-8.015c-1.453-1.355-1.664-3.582-.49-5.185l17.362-23.723c.657-.9 1.668-1.477 2.777-1.587 1.111-.106 2.213.258 3.035 1.011l6.773 6.199c1.382 1.266 1.676 3.33.702 4.932l-15.539 25.537c-.613 1.008-1.646 1.687-2.814 1.848-.178.024-.356.037-.534.037zm-3.376-12.431 2.528 2.357 11.359-18.67-1.167-1.07z"/><path d="m356.305 381.301c-.185 0-.371-.014-.556-.039-1.223-.176-2.291-.916-2.885-1.999l-14.71-26.861c-.863-1.577-.543-3.539.776-4.761l6.694-6.2c.82-.76 1.935-1.135 3.04-1.026 1.113.107 2.129.686 2.789 1.589l17.353 23.723c1.141 1.561.976 3.721-.392 5.088l-9.337 9.338c-.74.74-1.739 1.148-2.772 1.148zm-9.801-29.985 10.728 19.59 3.261-3.262-12.77-17.458z"/><path d="m255.382 248.801c-9.881 0-19.66-1.383-29.066-4.112-2.081-.604-3.277-2.779-2.674-4.859.604-2.08 2.78-3.276 4.859-2.674 8.696 2.522 17.74 3.802 26.881 3.802 53.077 0 96.256-43.143 96.256-96.173 0-53.076-43.18-96.256-96.256-96.256s-96.257 43.18-96.257 96.256c0 26.163 10.333 50.629 29.098 68.891 1.552 1.511 1.585 3.993.075 5.545-1.51 1.551-3.992 1.585-5.546.075-20.295-19.752-31.471-46.214-31.471-74.512 0-57.4 46.699-104.1 104.1-104.1s104.1 46.699 104.1 104.1c.001 57.356-46.698 104.017-104.099 104.017z"/><path d="m255.382 248.801c-22.36 0-43.74-7.008-61.831-20.266-1.008-.739-1.604-1.914-1.604-3.164v-54.717c0-1.613.987-3.062 2.489-3.651l35.378-13.886c1.839-.722 3.924.037 4.873 1.768l12.208 22.296 5.727-5.676c1.496-1.483 3.895-1.52 5.436-.083l5.073 4.733 13.037-21.427c.991-1.629 3.01-2.31 4.786-1.611l34.937 13.745c2.016.793 3.007 3.069 2.214 5.085-.794 2.015-3.068 3.007-5.086 2.213l-31.865-12.536-13.826 22.723c-.612 1.008-1.646 1.686-2.815 1.847s-2.348-.213-3.21-1.018l-5.837-5.447-6.748 6.688c-.875.867-2.109 1.273-3.325 1.096-1.219-.178-2.284-.917-2.875-1.998l-13.05-23.836-29.675 11.648v50.032c16.39 11.52 35.567 17.598 55.591 17.598 20.044 0 39.194-6.076 55.511-17.593v-4.077c0-2.166 1.756-3.922 3.921-3.922 2.166 0 3.922 1.756 3.922 3.922v6.084c0 1.247-.593 2.419-1.597 3.158-18.017 13.263-39.372 20.272-61.759 20.272z"/><path d="m215.957 240.786c-2.166 0-3.921-1.756-3.921-3.921v-50.01c0-2.166 1.756-3.921 3.921-3.921s3.922 1.756 3.922 3.921v50.01c0 2.165-1.756 3.921-3.922 3.921z"/><path d="m294.808 240.786c-2.165 0-3.921-1.756-3.921-3.921v-50.01c0-2.166 1.756-3.921 3.921-3.921 2.166 0 3.922 1.756 3.922 3.921v50.01c-.001 2.165-1.756 3.921-3.922 3.921z"/><path d="m255.875 151.268c-22.204 0-33.347-29.909-33.347-46.653 0-18.432 14.959-33.427 33.347-33.427 18.437 0 33.436 14.996 33.436 33.427 0 16.743-11.173 46.653-33.436 46.653zm0-72.237c-14.063 0-25.504 11.477-25.504 25.584 0 13.682 9.683 38.81 25.504 38.81 16.559 0 25.592-25.638 25.592-38.81 0-14.107-11.48-25.584-25.592-25.584z"/><path d="m278.276 101.759c-8.328 0-16.05-2.437-21.744-6.86-1.71-1.329-2.02-3.792-.69-5.503 1.328-1.709 3.792-2.02 5.503-.691 4.262 3.312 10.434 5.211 16.932 5.211 2.032 0 3.8-.162 5.403-.495 2.114-.443 4.196.922 4.637 3.043.439 2.121-.923 4.197-3.043 4.637-2.135.442-4.423.658-6.998.658z"/><path d="m240.336 101.182c-4.637 0-9.358-.826-13.654-2.39-2.036-.74-3.085-2.991-2.344-5.026.74-2.036 2.989-3.087 5.026-2.344 3.446 1.254 7.24 1.917 10.973 1.917 12.167 0 22.447-6.798 22.447-14.844 0-2.166 1.756-3.922 3.922-3.922 2.165 0 3.921 1.756 3.921 3.922-.001 12.51-13.589 22.687-30.291 22.687z"/><path d="m263.978 186.232c-.986 0-1.945-.373-2.676-1.054l-8.595-8.02c-1.452-1.354-1.662-3.581-.489-5.183l17.354-23.72c.658-.899 1.668-1.476 2.776-1.587 1.106-.11 2.212.257 3.034 1.008l6.781 6.197c1.385 1.265 1.68 3.332.705 4.933l-15.541 25.542c-.612 1.008-1.646 1.686-2.815 1.847-.179.025-.358.037-.534.037zm-3.375-12.434 2.528 2.359 11.359-18.67-1.171-1.07z"/><path d="m245.956 187.556c-.188 0-.376-.014-.564-.041-1.219-.178-2.284-.917-2.875-1.998l-14.708-26.865c-.868-1.584-.54-3.557.792-4.776l6.774-6.197c.822-.751 1.927-1.118 3.035-1.009 1.109.11 2.119.687 2.777 1.586l17.36 23.72c1.146 1.565.975 3.735-.404 5.101l-9.426 9.342c-.739.733-1.735 1.137-2.761 1.137zm-9.791-29.971 10.73 19.597 3.329-3.299-12.783-17.465z"/><path d="m251.496 471.314c-36.623 0-72.378-10.179-103.401-29.438-1.84-1.142-2.406-3.56-1.263-5.399 1.142-1.841 3.559-2.407 5.4-1.264 29.78 18.487 64.105 28.259 99.265 28.259 35.486 0 70.152-9.968 100.248-28.827 1.836-1.148 4.256-.594 5.405 1.241 1.15 1.835.595 4.256-1.24 5.405-31.347 19.642-67.453 30.023-104.414 30.023z"/><path d="m443.918 279.882c-2.165 0-3.921-1.756-3.921-3.922v-1.074c0-66.542-35.648-128.812-93.033-162.51-1.868-1.097-2.493-3.5-1.396-5.367 1.096-1.869 3.498-2.492 5.367-1.396 28.971 17.012 53.249 41.346 70.209 70.37 17.464 29.885 26.695 64.086 26.695 98.904v1.074c.001 2.165-1.755 3.921-3.921 3.921z"/><path d="m59.568 292.362c-2.034 0-3.754-1.57-3.907-3.632-.338-4.568-.509-9.227-.509-13.845 0-36.85 10.278-72.771 29.722-103.88 18.929-30.283 45.719-54.849 77.475-71.042 1.93-.984 4.291-.216 5.275 1.712.984 1.929.217 4.291-1.712 5.275-63.481 32.37-102.917 96.718-102.917 167.935 0 4.427.165 8.889.488 13.267.16 2.159-1.461 4.04-3.621 4.199-.098.007-.196.011-.294.011z"/></svg>