<svg enable-background="new 0 0 70 70" viewBox="0 0 70 87.5" xmlns="http://www.w3.org/2000/svg"><path d="m63.6298828 11.0205078h-.9594727v-8.0205078c0-.5527344-.4477539-1-1-1s-1 .4472656-1 1v8.0205078h-7.1914062v-4.3828125c0-2.0253906-1.6083984-3.6826172-3.6152344-3.7597656-.0253906-.0019531-.0507812-.0029297-.0761718-.0029297h-.0712891c-.0253906 0-.0507812.0009766-.0761719.0029297-2.0068359.0771484-3.6152344 1.734375-3.6152344 3.7597656v4.3828125h-32.0883789-1.3330078v-2.6875c0-.5527344-.4477539-1-1-1s-1 .4472656-1 1v2.6875h-1.3334961-2.9101562c-2.4038086 0-4.3598633 1.959961-4.3598633 4.3691406v15.8701172c0 2.4042969 1.9560547 4.3603516 4.3598633 4.3603516h.8686523v4.0419922c0 1.6660156 1.3549805 3.0214844 3.0205078 3.0214844h.3544922v4.5c0 .5527344.4477539 1 1 1s1-.4472656 1-1v-4.5h.3540039c1.6660156 0 3.0209961-1.3554688 3.0209961-3.0214844v-4.0419922h2.7016602c2.703125 0 5.1210938-1.8134766 5.8798828-4.4101562l.7192383-2.459961h16.1108398v18.1728516c0 1.3017578-1.059082 2.3603516-2.3603516 2.3603516h-32.6699218c-2.4038086-.0000001-4.3598633 1.9599609-4.3598633 4.3701171v9.9765625c0 2.4101563 1.9560547 4.3701172 4.3598633 4.3701172h60.6401367c.5522461 0 1-.4472656 1-1v-51.6103516c0-2.4091796-1.9604492-4.3691406-4.3701172-4.3691406zm-49.6513672 28.6416016c0 .5634766-.4580078 1.0214844-1.0209961 1.0214844h-2.7084961c-.5625 0-1.0205078-.4580078-1.0205078-1.0214844v-4.0371094h4.75zm34.0463867-33.0244141c0-.9599609.7714844-1.7431641 1.7270508-1.7626953.9555664.0195312 1.7270508.8027344 1.7270508 1.7626953v4.3828125h-3.4541016zm-37.7548828 15.8623047h2.6665039v2.25h-2.6665039zm2.6665039-9.4794922v7.4794922h-2.6665039v-7.4794922zm9.7036133 17.6289063c-.519043 1.7763672-2.1108398 2.9707031-3.9599609 2.9707031h-12.3203125c-1.3012695 0-2.3598633-1.0585938-2.3598633-2.3603516v-15.8701172c0-1.3066406 1.0585938-2.3691406 2.3598633-2.3691406h1.9101562v12.7294922c0 .5527344.4477539 1 1 1h4.6665039c.5522461 0 1-.4472656 1-1v-12.7294922h8.5585938v14.7047119zm2.8549805-3.8994141v-13.7294922h15.8950195v13.7294922zm-19.1352539 24.5332031h32.6699219c2.4042969 0 4.3603516-1.9560547 4.3603516-4.3603516v-19.1728515-14.7294922h3.6347656 5.4541016 11.1508789c1.3066406 0 2.3701172 1.0625 2.3701172 2.3691406v41.1435547h-62.0000001v-2.8798828c0-1.3066406 1.0585938-2.3701172 2.3598633-2.3701172zm0 14.7167969c-1.3012695 0-2.3598633-1.0634766-2.3598633-2.3701172v-5.0966797h62v7.4667969z"/><path d="m60.1855469 39.3837891c-1.4897461-1.3408203-3.4160156-2.0146484-5.4121094-1.9130859-2.0004883.1064453-3.8398438.984375-5.1796875 2.4746094-1.3393555 1.4892578-2.0185547 3.4121094-1.9125977 5.4121094.105957 2.0009766.9848633 3.8398438 2.4746094 5.1796875 1.3881836 1.2490234 3.1518555 1.9238281 5.0048828 1.9238281.1352539 0 .2709961-.0039062.4072266-.0107422 4.1293945-.2197266 7.3110352-3.7578125 7.0922852-7.8867188-.1064454-2.0009766-.9848633-3.8408204-2.4746094-5.1796875zm-10.5073242 5.868164c-.0776367-1.4677734.4204102-2.8769531 1.402832-3.9697266.755249-.8393555 1.7290649-1.4072266 2.8047485-1.6633301l.5722656 10.7907715c-1.0964966-.1400757-2.1256714-.6046143-2.9653931-1.3598633-1.0922851-.9824218-1.7368163-2.3310546-1.814453-3.7978515zm6.7769165 5.0519409-.5717163-10.77948c1.0956421.1415405 2.1256104.5916748 2.9647217 1.3466797 1.0922852.9824219 1.7368164 2.3310547 1.8149414 3.7978516.1420898 2.6868897-1.6801148 5.0283814-4.2079468 5.6349487z"/><path d="m47.6704102 30.875c0 .5527344.4477539 1 1 1h11.9746094c.5522461 0 1-.4472656 1-1s-.4477539-1-1-1h-11.9746094c-.5522461 0-1 .4472656-1 1z"/><path d="m46.6787109 22.5h11.9746094c.5522461 0 1-.4472656 1-1s-.4477539-1-1-1h-11.9746094c-.5522461 0-1 .4472656-1 1s.4477539 1 1 1z"/></svg>