<svg viewBox="0 0 25 31.25" xmlns="http://www.w3.org/2000/svg"><path d="m8.85 22.94a5.28 5.28 0 0 1 -3.39-1.18c-3-2.47-3.44-7-3.46-7.15s-1-6.44 3.38-7.54a9.89 9.89 0 0 1 7.12.93 9.89 9.89 0 0 1 7.12-.91c4.38 1.07 3.45 7.09 3.38 7.53s-.55 4.72-3.46 7.14a5.81 5.81 0 0 1 -6.38.45 1.53 1.53 0 0 0 -1.32 0 6.75 6.75 0 0 1 -2.99.73zm-1.1-15.16a9.1 9.1 0 0 0 -2.13.22c-3.51.92-2.62 6.42-2.62 6.48s.45 4.31 3.1 6.52a4.86 4.86 0 0 0 5.3.33 2.44 2.44 0 0 1 2.2 0 4.86 4.86 0 0 0 5.3-.33c2.65-2.2 3.1-6.44 3.1-6.48 0-.06.87-5.56-2.63-6.44a8.89 8.89 0 0 0 -6.6.94l-.28.18-.27-.2a8.74 8.74 0 0 0 -4.47-1.22z"/><path d="m13 8.56h-1c0-2.25.94-6.5 4.5-6.5h1.5v1h-1.5c-3.45 0-3.5 5.44-3.5 5.5z"/><path d="m13 8.17-.6-.12c-.05-.05-5.4-1.13-5.4-5.49v-.5h.5s5.5.06 5.5 5.5zm-5-5.07c.36 2.35 2.79 3.41 4 3.79a4.2 4.2 0 0 0 -4-3.79z"/><path d="m6 12.56h-1c0-1.21.52-3.5 2.5-3.5v1c-1.5 0-1.5 2.47-1.5 2.5z"/></svg>