<svg viewBox="0 0 25 31.25" xmlns="http://www.w3.org/2000/svg"><path d="m9 19.9a4 4 0 1 1 4-4 4 4 0 0 1 -4 4zm0-7a3 3 0 1 0 3 3 3 3 0 0 0 -3-3z"/><path d="m17 22.9a4 4 0 1 1 4-4 4 4 0 0 1 -4 4zm0-7a3 3 0 1 0 3 3 3 3 0 0 0 -3-3z"/><path d="m9.73 12.52-.9-.43a8.09 8.09 0 0 1 4.48-4.15 4.67 4.67 0 0 0 2.87-2.5 3.82 3.82 0 0 0 -.13-2.82l.9-.44a4.86 4.86 0 0 1 .17 3.61 5.6 5.6 0 0 1 -3.43 3.07 7.13 7.13 0 0 0 -3.96 3.66z"/><path d="m15.35 15.5a7.14 7.14 0 0 1 1.8-5.45c2.63-2.63-.57-6.17-.71-6.32l.74-.68c1.39 1.51 3.31 5.06.67 7.7a6.26 6.26 0 0 0 -1.5 4.73z"/><path d="m11.91 5.22a3.9 3.9 0 0 1 -3.25-1.44l-.43-.55.65-.23c.24-.08 5.75-2 8 0l.51.47-.61.34a11.52 11.52 0 0 1 -4.87 1.41zm-1.91-1.53c1.58 1.11 4.16.23 5.46-.34-1.46-.56-3.95-.09-5.46.34z"/></svg>