<svg enable-background="new 0 0 100 100" viewBox="0 0 100 125" xmlns="http://www.w3.org/2000/svg"><path d="m59.167 16.846c.277.095.55.194.82.3.171.067.339.135.507.206.265.112.526.23.782.352.161.076.32.153.477.233.122.062.247.122.367.186.194 0 .387-.012.58-.023.151-.008.303-.015.453-.029.238-.023.475-.051.71-.09.095-.015.189-.037.284-.055.432-.082.857-.19 1.275-.323.106-.034.213-.066.318-.104.22-.078.438-.161.652-.253.152-.065.299-.138.447-.209.275-.132.543-.276.806-.43.193-.115.385-.232.57-.358.128-.087.255-.175.38-.268.292-.217.578-.443.847-.689.039-.036.075-.076.114-.113.254-.24.496-.493.727-.757.065-.075.13-.15.193-.227.254-.308.498-.626.719-.964-1.342-.473-2.728-.653-4.088-.586-.167.008-.334.016-.499.032-.232.022-.462.05-.691.087-.107.017-.212.041-.318.061-.419.081-.831.185-1.237.313-.112.036-.225.07-.336.109-.217.077-.432.159-.644.249-.159.068-.314.144-.469.22-.266.128-.526.268-.782.418-.197.116-.392.236-.581.364-.126.085-.251.173-.374.263-.293.218-.58.444-.851.691-.038.035-.073.074-.11.109-.255.24-.498.494-.729.759-.066.075-.131.151-.195.228-.07.085-.131.179-.198.266.027.014.05.023.074.032z" fill="none"/><path d="m75.655 81.298c.012-.029.026-.056.039-.085.194-.458.363-.93.518-1.408.027-.083.06-.162.085-.246.136-.44.246-.893.348-1.349.026-.118.062-.231.086-.35.112-.557.199-1.124.258-1.7.001-.011.004-.021.005-.032.104-1.031.115-2.057.039-3.071-.04-.533-.102-1.062-.191-1.587-.086-.508-.195-1.012-.327-1.512-.001-.002 0-.005-.001-.007l-.565-2.138.16.016c-.218-1.045-.439-2.091-.664-3.139-.135-.627-.266-1.252-.403-1.88-.329-1.506-.669-3.015-1.011-4.524-.119-.525-.234-1.049-.355-1.574-.403-1.75-.816-3.499-1.236-5.247-.068-.284-.133-.568-.202-.852-.499-2.061-1.008-4.12-1.529-6.171-.473-1.861-.834-3.804-1.216-5.862-.728-3.919-1.483-7.928-3.032-11.308-.041-.089-.074-.185-.116-.274-.02-.042-.045-.079-.065-.121-.532-1.097-1.149-2.127-1.89-3.054-.007-.008-.015-.016-.021-.024-.854-1.06-2-1.937-3.343-2.651-1.529-.125-3.02-.495-4.444-1.123-.022-.01-.044-.016-.066-.026-.091-.04-.18-.089-.27-.132-.181-.086-.363-.171-.541-.265-.003-.001-.005-.004-.008-.005-.049-.026-.093-.06-.139-.092-.011.031-.022.055-.033.055-.001 0-.003 0-.004 0-.038 0-.076 0-.114 0-.001 0-.002 0-.002 0-.038 0-.075-.26-.114-.26l-.227-.133c-3.692 0-7.081.997-9.298 2.85-3.784 3.163-5.897 8.351-7.94 13.4-.782 1.931-1.52 3.738-2.35 5.463-2.743 5.695-5.437 11.544-8.041 17.464-.028.065-.056.13-.085.194-.61 1.389-1.21 2.785-1.81 4.181l.116.01-.943 2.003c-.003.007-.004.015-.007.022-.917 1.852-1.486 3.84-1.694 5.913-.013.127-.01.253-.02.38-.036.456-.069.911-.07 1.364-.01 4.056 1.369 7.957 3.968 11.14 2.971 3.639 7.178 5.901 11.847 6.37 2.73.275 5.699-.194 9.074-1.433.002-.001.004 0 .006-.001l.695-.255.627.386c.003.002.006.002.008.004 1.682 1.036 3.289 1.811 4.85 2.353 1.279.444 2.528.733 3.757.857.03.003.061.002.091.005 7.774.74 14.874-3.721 17.81-10.539z" fill="none"/><path d="m80.143 74.892c.005-.173.004-.346.004-.519 0-.366-.009-.731-.028-1.095-.009-.165-.015-.331-.028-.495-.038-.495-.089-.989-.163-1.479l.041.005-.416-2.033c-.001-.004-.001-.009-.001-.013-1.736-8.482-3.708-17.087-5.863-25.575-.448-1.764-.8-3.66-1.173-5.666-1.065-5.735-2.167-11.665-5.724-16.115-.254-.318-.53-.625-.82-.924-.065-.067-.139-.13-.206-.196-.017-.017-.035-.033-.053-.05 1.983-.53 3.821-1.489 5.38-2.801.009-.007.018-.014.027-.021.191-.162.374-.332.557-.504.064-.06.131-.117.194-.179.132-.13.257-.267.384-.402.103-.109.209-.215.309-.328.092-.105.178-.215.267-.323.124-.149.249-.295.367-.45.071-.093.135-.192.204-.287.126-.174.254-.347.372-.529.068-.104.128-.213.193-.319.11-.179.222-.355.325-.54.106-.192.201-.392.299-.59.052-.106.11-.206.159-.314.343-.744.042-1.626-.685-2.006-.263-.138-.53-.271-.805-.395-.436-.195-.878-.364-1.323-.511-.304-.101-.614-.175-.923-.254-.136-.034-.272-.08-.408-.11-.359-.08-.723-.134-1.087-.185-.087-.012-.173-.031-.26-.041-.375-.045-.754-.066-1.135-.08-.073-.002-.145-.01-.218-.011-.097-.002-.192-.015-.289-.015-3.482 0-6.772 1.325-9.276 3.578-.072.065-.143.13-.213.197-.052.049-.107.096-.159.146-.28-2.439-1.037-4.419-2.266-5.914-1.852-2.25-4.072-2.519-4.319-2.542-.833-.078-1.566.522-1.666 1.346-.002.014-.007.027-.008.042-.079.845.542 1.595 1.387 1.674.011.001 1.187.164 2.232 1.434 1.061 1.29 1.631 3.283 1.685 5.844.004.182-.006.378-.007.566-.095-.007-.196-.02-.289-.027-.206-.015-.411-.029-.616-.05-.295-.03-.57.039-.818.16-.041.02-.088.028-.127.051-.113.01-.222.029-.334.04-.183.019-.365.042-.546.066-.291.038-.578.081-.864.131-.183.032-.364.066-.545.103-.278.056-.552.119-.824.186-.178.044-.355.089-.53.138-.268.075-.531.157-.792.243-.167.055-.335.109-.499.168-.264.095-.52.2-.774.306-.15.063-.302.122-.448.189-.265.12-.52.251-.773.383-.125.065-.255.126-.377.195-.284.159-.555.33-.823.504-.08.052-.166.1-.245.153-.191.131-.369.272-.551.411-.145.111-.298.216-.437.332-2.734 2.285-4.641 5.323-6.221 8.598-.45.933-.868 1.888-1.276 2.847-.374.878-.738 1.759-1.095 2.64-.075.184-.151.369-.225.553-.552 1.364-1.089 2.648-1.638 3.887-.21.473-.415.96-.632 1.412-.397.824-.788 1.664-1.183 2.495-2.995 6.301-5.922 12.769-8.731 19.302-.307.713-.62 1.423-.924 2.137-.002.004-.002.009-.004.014l-.272.68c-.089.201-.161.409-.243.612-.098.243-.201.483-.289.729-.102.284-.188.572-.278.86-.029.094-.063.187-.091.282-.044.149-.092.296-.133.446-.082.306-.146.617-.214.926-.051.234-.112.465-.155.701-.071.39-.12.785-.169 1.181-.019.156-.051.308-.066.465-.189 1.884-.105 3.75.205 5.567.578 3.391 1.995 6.594 4.191 9.354.056.07.103.146.16.216.024.029.051.055.076.084 2.261 2.739 5.124 4.794 8.341 6.058 1.286.505 2.628.878 4.012 1.119.494.086.989.173 1.493.224.94.094 1.901.107 2.882.055 2.157-.114 4.424-.576 6.859-1.412 2.85 1.674 5.556 2.702 8.221 3.128.352.056.704.104 1.055.14.696.07 1.39.105 2.078.105h.009.001c3.649 0 7.043-.958 9.985-2.621 5.703-3.176 9.828-8.975 10.528-15.944.004-.039.003-.079.007-.118.046-.476.072-.951.084-1.425zm-20.654-58.567c.232-.265.474-.519.729-.759.038-.035.072-.074.11-.109.27-.247.557-.473.851-.691.123-.091.248-.178.374-.263.189-.129.384-.248.581-.364.255-.15.516-.289.782-.418.155-.076.31-.152.469-.22.212-.09.427-.173.644-.249.111-.039.224-.074.336-.109.405-.129.818-.233 1.237-.313.106-.02.211-.044.318-.061.229-.037.46-.065.691-.087.165-.016.332-.024.499-.032 1.36-.068 2.747.112 4.088.586-.22.338-.464.656-.719.964-.063.077-.128.152-.193.227-.231.264-.473.518-.727.757-.039.036-.075.077-.114.113-.269.246-.555.471-.847.689-.125.092-.251.181-.38.268-.186.126-.377.243-.57.358-.263.155-.532.298-.806.43-.148.072-.296.144-.447.209-.214.091-.432.175-.652.253-.105.037-.212.07-.318.104-.418.133-.843.241-1.275.323-.095.018-.189.039-.284.055-.235.038-.472.067-.71.09-.15.014-.302.021-.453.029-.193.01-.386.023-.58.023-.12-.065-.245-.124-.367-.186-.157-.08-.317-.157-.477-.233-.257-.122-.517-.24-.782-.352-.168-.071-.336-.139-.507-.206-.27-.105-.543-.205-.82-.3-.024-.008-.048-.018-.072-.026.068-.087.128-.181.198-.266.062-.083.127-.159.193-.234zm-1.642 75.515c-.03-.003-.061-.002-.091-.005-1.23-.124-2.479-.413-3.757-.857-1.561-.542-3.168-1.316-4.85-2.353-.003-.002-.006-.002-.008-.004l-.627-.386-.695.255c-.002.001-.004 0-.006.001-3.375 1.239-6.344 1.708-9.074 1.433-4.669-.469-8.876-2.731-11.847-6.37-2.599-3.183-3.978-7.084-3.968-11.14.001-.453.034-.908.07-1.364.01-.127.007-.253.02-.38.208-2.073.777-4.061 1.694-5.913.004-.007.004-.015.007-.022l.943-2.003-.116-.01c.6-1.396 1.2-2.792 1.81-4.181.028-.065.056-.13.085-.194 2.604-5.92 5.297-11.77 8.041-17.464.831-1.725 1.569-3.532 2.35-5.463 2.043-5.049 4.155-10.237 7.94-13.4 2.217-1.853 5.605-2.85 9.298-2.85l.227.133c.039.001.076.26.114.26h.002.114.004c.011 0 .022-.024.033-.055.046.031.09.065.139.092.003.001.005.004.008.005.178.094.36.178.541.265.091.043.179.092.27.132.022.01.044.016.066.026 1.424.628 2.915.998 4.444 1.123 1.342.713 2.488 1.59 3.343 2.651.007.008.015.016.021.024.741.927 1.358 1.956 1.89 3.054.02.042.045.079.065.121.042.089.075.184.116.274 1.549 3.38 2.304 7.389 3.032 11.308.382 2.057.743 4 1.216 5.862.521 2.051 1.03 4.11 1.529 6.171.069.284.134.568.202.852.42 1.748.834 3.497 1.236 5.247.121.525.236 1.049.355 1.574.343 1.509.682 3.017 1.011 4.524.137.628.268 1.253.403 1.88.225 1.048.446 2.094.664 3.139l-.16-.016.565 2.138c.001.002 0 .005.001.007.132.499.241 1.003.327 1.512.089.525.151 1.055.191 1.587.076 1.014.064 2.04-.039 3.071-.001.011-.004.021-.005.032-.059.576-.146 1.143-.258 1.7-.024.119-.06.232-.086.35-.102.456-.211.908-.348 1.349-.026.083-.058.163-.085.246-.156.478-.324.95-.518 1.408-.012.029-.026.056-.039.085-2.938 6.815-10.038 11.276-17.81 10.539z"/><g fill="none"><path d="m50.962 9.598c-.003 0-.031 0-.082-.008"/><path d="m20.177 27.749v-.002"/></g></svg>