<svg viewBox="0 0 100 125" xmlns="http://www.w3.org/2000/svg"><path d="m56.6 18.58a33.72 33.72 0 0 0 1.83-3.23 3.36 3.36 0 0 0 -.37-3.5c-.85-.88-2.71-.7-3 .52a3.08 3.08 0 0 0 -1.58-3.5 5.47 5.47 0 0 0 -4-.27c-2.13.61-4.26 2.92-3.13 4.81 1.7 2.89.94 6.51.24 9.77-3.9 17.89-4.9 36.31-5.26 54.63a23.11 23.11 0 0 0 .88 8.43c1 2.65 3.23 5.05 6.06 5.39 3.29.4 6.36-2.16 7.67-5.23s1.22-6.48 1.1-9.83c-.67-16.62-2-33.2-1.83-49.85.02-2.78.11-5.72 1.39-8.14zm-2.68 67.19a6.39 6.39 0 0 1 -.92 1.62 5.08 5.08 0 0 1 -9-2.94.6.6 0 0 1 .84-.57 12.34 12.34 0 0 0 9.45-.23c.71.29-.1 1.45-.37 2.12zm-.92-56.14c.37 16.28 1.07 32.59 2.13 48.84.15 2.43-2.22 4.38-4.6 4.72s-4.78-.58-7-1.46a290.87 290.87 0 0 1 5.58-60.73 14.49 14.49 0 0 0 -1.64-9.92c0-.79 1.31-.91 1.83-.3a3.31 3.31 0 0 1 .48 2.22 2.75 2.75 0 0 0 .7 2.19 5.36 5.36 0 0 0 .3-5.23c.58-1.25 2.56.06 2.68 1.43s-.46 2.92.37 4a2.7 2.7 0 0 1 4.29-1.92c-4.84 3.41-5.27 10.28-5.12 16.16z"/></svg>