<svg enable-background="new 0 0 100 100" viewBox="0 0 100 125" xmlns="http://www.w3.org/2000/svg"><path d="m52.174 47.137-.622-.229c-6.627-2.441-9.149-6.988-9.816-10.468-3.375 1.468-7.358 2.236-11.681 2.236-4.069 0-7.012-.668-7.135-.697l-3.272-.756 2.504-2.238c8.987-8.025 18.636-12.095 28.676-12.095 16.178 0 27.445 10.523 27.918 10.97l1.607 1.528-1.865 1.198c-2.346 1.508-4.983 2.273-7.835 2.273h-.004c-3.552-.002-6.743-1.188-8.864-2.231-.951 5.616-6.022 9.099-8.996 10.266zm-6.672-16.802-.453 3.557c-.026.251-.611 6.338 7.056 9.497 1.792-.874 6.914-3.887 6.309-9.53l-.411-3.848 3.153 2.247c.045.033 4.439 3.12 9.493 3.122h.004c1.302 0 2.542-.209 3.711-.62-3.749-2.838-12.497-8.389-23.536-8.389-8.076 0-15.923 2.931-23.381 8.725.786.06 1.665.101 2.607.101 3.351 0 8.222-.523 12.375-3.015z"/><path d="m49.125 24.96c-.102-.528-2.375-13.043 8.868-20.85l1.985 2.858c-9.401 6.527-7.454 17.223-7.433 17.332z"/><path d="m45.488 23.683c-1.937 0-3.79-.601-5.356-1.741-2.743-1.988-4.149-5.336-3.674-8.737l.129-.917.833-.406c3.039-1.472 6.753-1.166 9.445.795 2.744 1.994 4.15 5.343 3.67 8.742l-.129.916-.833.406c-1.267.616-2.681.942-4.085.942zm-5.638-9.023c.044 1.771.891 3.423 2.328 4.466 1.421 1.034 3.264 1.334 4.97.836-.045-1.771-.891-3.424-2.329-4.472-1.411-1.029-3.263-1.334-4.969-.83z"/><path d="m51.76 95.89c-4.952 0-8.284-2.921-8.436-3.058-30.155-21.048-18.215-56.266-18.09-56.619l3.284 1.154c-.469 1.341-11.158 33.098 16.96 52.74.187.15 3.229 2.773 7.48 2.223 3.82-.5 7.508-3.363 10.961-8.51 10.754-16.019 16.896-26.825 8.069-46.311l3.167-1.438c9.398 20.744 3.117 32.609-8.348 49.688-4.055 6.04-8.585 9.415-13.466 10.03-.542.07-1.069.101-1.581.101z"/><path d="m36.519 56.13c-2.363 0-4.283-1.92-4.283-4.282 0-1.359 1.119-6.678 4.283-6.678 3.167 0 4.286 5.319 4.286 6.678 0 2.362-1.924 4.282-4.286 4.282zm0-7.02c-.401.767-.802 2.048-.802 2.737.003.889 1.611.882 1.608 0 0-.689-.406-1.972-.806-2.737z"/><path d="m50.906 60.736c-2.362 0-4.282-1.923-4.282-4.285 0-1.359 1.117-6.678 4.282-6.678 3.171 0 4.289 5.319 4.289 6.678 0 2.362-1.924 4.285-4.289 4.285zm.004-7.025c-.402.766-.806 2.051-.806 2.74 0 .893 1.611.886 1.611 0 0-.691-.404-1.974-.805-2.74z"/><path d="m64.722 55.748c-2.362 0-4.286-1.922-4.286-4.285 0-1.358 1.119-6.678 4.286-6.678 3.165 0 4.283 5.32 4.283 6.678 0 2.363-1.921 4.285-4.283 4.285zm0-7.022c-.4.766-.806 2.049-.806 2.737.004.885 1.612.891 1.608 0 0-.689-.401-1.971-.802-2.737z"/><path d="m60.083 72.552c-2.362 0-4.283-1.92-4.283-4.283 0-1.358 1.118-6.679 4.283-6.679 3.171 0 4.289 5.32 4.289 6.679 0 2.363-1.924 4.283-4.289 4.283zm.003-7.023c-.4.768-.805 2.051-.805 2.739.002.89 1.611.883 1.611 0 .001-.688-.406-1.974-.806-2.739z"/><path d="m41.865 72.432c-2.362 0-4.286-1.923-4.286-4.285 0-1.359 1.118-6.679 4.286-6.679 3.164 0 4.282 5.319 4.282 6.679 0 2.362-1.92 4.285-4.282 4.285zm0-7.024c-.401.768-.805 2.049-.805 2.738 0 .885 1.611.893 1.607 0 0-.689-.401-1.97-.802-2.738z"/><path d="m50.641 82.5c-2.361 0-4.282-1.922-4.282-4.283 0-1.36 1.118-6.68 4.282-6.68 3.168 0 4.286 5.319 4.286 6.68 0 2.361-1.924 4.283-4.286 4.283zm0-7.021c-.401.767-.801 2.046-.801 2.737.002.891 1.611.885 1.607 0-.001-.691-.404-1.97-.806-2.737z"/></svg>